<?xml version="1.0" encoding="utf-8"?>
<!-- Generator: Adobe Illustrator 21.1.0, SVG Export Plug-In . SVG Version: 6.00 Build 0)  -->
<svg version="1.1" id="Layer_1" xmlns="http://www.w3.org/2000/svg" xmlns:xlink="http://www.w3.org/1999/xlink" x="0px" y="0px"
	 viewBox="0 0 960 560" style="enable-background:new 0 0 960 560;" xml:space="preserve">
<style type="text/css">
	.st0{fill:#9D9D9C;}
	.st1{fill:#FFFFFF;}
	.st2{fill:url(#SVGID_1_);}
	.st3{fill:url(#SVGID_2_);}
	.st4{fill:#B2B2B2;}
	.st5{fill:#36A9E1;}
	.st6{fill:url(#SVGID_3_);}
	.st7{fill:url(#SVGID_4_);}
	.st8{fill:url(#SVGID_5_);}
	.st9{fill:#706F6F;}
	.st10{font-family:'LaoSangamMN';}
	.st11{font-size:12px;}
</style>
<g>
	<g>
		<rect x="158.5" y="185.5" class="st0" width="78.2" height="40"/>
		<g>
			<path class="st1" d="M244,185.5c5.4,0,9.9,4.4,9.9,9.8v20.4c0,5.4-4.4,9.8-9.9,9.8h-7.3v-40H244z"/>
			
				<linearGradient id="SVGID_1_" gradientUnits="userSpaceOnUse" x1="899.3104" y1="225.4983" x2="899.3104" y2="185.5739" gradientTransform="matrix(-1 0 0 1 1043.8418 0)">
				<stop  offset="0.2269" style="stop-color:#9C9C9C"/>
				<stop  offset="0.286" style="stop-color:#A7A7A7"/>
				<stop  offset="0.4618" style="stop-color:#C3C3C3"/>
				<stop  offset="0.6393" style="stop-color:#D6D6D6"/>
				<stop  offset="0.8181" style="stop-color:#E2E2E2"/>
				<stop  offset="1" style="stop-color:#E6E6E6"/>
			</linearGradient>
			<path class="st2" d="M158.5,185.6v39.9c-13-0.6-27.9-14.4-27.9-20C130.6,200,145.5,186.2,158.5,185.6z"/>
		</g>
	</g>
	<linearGradient id="SVGID_2_" gradientUnits="userSpaceOnUse" x1="400.1213" y1="216.0235" x2="400.1213" y2="25.937">
		<stop  offset="0" style="stop-color:#FFFFFF"/>
		<stop  offset="1" style="stop-color:#DADADA"/>
	</linearGradient>
	<polygon class="st3" points="563.5,216 316.4,25.9 236.7,25.9 360.8,216 	"/>
	<path class="st4" d="M948.2,290.7c-8.6,16.8-46.6,32.9-86,32.9c-44.9,0-510.9,0-607.3,0c-70.1,0-121.6-14.8-158-32.9H948.2z"/>
	<path class="st5" d="M65.4,271.7h876.9c4.9,5.3,7.7,9.5,7.7,12c0,2.3-0.6,4.6-1.8,6.9H96.9C84.8,284.6,74.3,278.1,65.4,271.7z"/>
	<linearGradient id="SVGID_3_" gradientUnits="userSpaceOnUse" x1="483.6793" y1="271.6978" x2="483.6793" y2="205.5354">
		<stop  offset="0" style="stop-color:#FFFFFF"/>
		<stop  offset="1" style="stop-color:#DADADA"/>
	</linearGradient>
	<path class="st6" d="M65.5,271.7c-28.2-20.4-40.5-40.4-40.5-46.1c0-14.8,41.5-20,41.5-20s647.6,0,725.9,0
		c19.7,0,39.5,4.1,58.1,10.5h-51l-11.2,36.7h131.9c9.4,6.9,16.9,13.5,22,19H65.5z"/>
	<polygon class="st4" points="213.2,205.5 68.1,73.3 11,73.3 66.9,205.5 	"/>
	<linearGradient id="SVGID_4_" gradientUnits="userSpaceOnUse" x1="373.2591" y1="523" x2="373.2591" y2="306.5934">
		<stop  offset="0" style="stop-color:#FFFFFF"/>
		<stop  offset="1" style="stop-color:#DADADA"/>
	</linearGradient>
	<polygon class="st7" points="570,306.6 282.5,523 176.6,523 349.4,306.6 	"/>
	<g>
		<rect x="158.5" y="309.1" class="st0" width="78.2" height="40"/>
		<g>
			<linearGradient id="SVGID_5_" gradientUnits="userSpaceOnUse" x1="236.7123" y1="329.1358" x2="253.9009" y2="329.1358">
				<stop  offset="0" style="stop-color:#FFFFFF"/>
				<stop  offset="1" style="stop-color:#DADADA"/>
			</linearGradient>
			<path class="st8" d="M244,309.1c5.4,0,9.9,4.4,9.9,9.8v20.4c0,5.4-4.4,9.8-9.9,9.8h-7.3v-40H244z"/>
			<path class="st1" d="M158.5,309.2v39.9c-13-0.6-27.9-14.4-27.9-20C130.6,323.6,145.5,309.8,158.5,309.2z"/>
		</g>
	</g>
	<polygon class="st5" points="106,205.5 66.9,205.5 11,73.3 28.9,73.3 	"/>
	<g>
		<ellipse class="st9" cx="725.3" cy="236.8" rx="10.7" ry="10.7"/>
		<ellipse class="st9" cx="685.6" cy="236.8" rx="10.7" ry="10.7"/>
		<ellipse class="st9" cx="645.9" cy="236.8" rx="10.7" ry="10.7"/>
		<ellipse class="st9" cx="606.2" cy="236.8" rx="10.7" ry="10.7"/>
		<ellipse class="st9" cx="566.6" cy="236.8" rx="10.7" ry="10.7"/>
		<ellipse class="st9" cx="526.9" cy="236.8" rx="10.7" ry="10.7"/>
		<ellipse class="st9" cx="487.2" cy="236.8" rx="10.7" ry="10.7"/>
		<ellipse class="st9" cx="447.5" cy="236.8" rx="10.7" ry="10.7"/>
		<ellipse class="st9" cx="407.8" cy="236.8" rx="10.7" ry="10.7"/>
		<ellipse class="st9" cx="368.1" cy="236.8" rx="10.7" ry="10.7"/>
		<ellipse class="st9" cx="328.5" cy="236.8" rx="10.7" ry="10.7"/>
		<ellipse class="st9" cx="288.8" cy="236.8" rx="10.7" ry="10.7"/>
	</g>
	<path class="st9" d="M799.5,216h51c27.2,9.3,51.8,23.5,69.8,36.7H788.3L799.5,216z"/>
</g>
<text transform="matrix(1 0 0 1 645 285)" class="st1 st10 st11">Auckland   -   Christchurch</text>
</svg>
