<?xml version="1.0" encoding="utf-8"?>
<!-- Generator: Adobe Illustrator 21.1.0, SVG Export Plug-In . SVG Version: 6.00 Build 0)  -->
<svg version="1.1" id="Layer_1" xmlns="http://www.w3.org/2000/svg" xmlns:xlink="http://www.w3.org/1999/xlink" x="0px" y="0px"
	 viewBox="0 0 1366 768" style="enable-background:new 0 0 1366 768;" xml:space="preserve">
<path d="M1065,770c-144.8,0.1-289.5,0.2-434.3,0.2c-45.1,0-90.3-0.1-135.4-0.1c-127.9,0-255.9,0-383.8,0c-2.2,0-4.3,0-6.5-0.1
	c0-26.7,0-53.3,0-80c1.5,0,3,0,5,0c0.7-8.2,1.6-16.3,1.9-24.5c0.2-3.7,1.8-4.7,4.7-6.8c7.8-5.5,15.8-1.5,23.6-2.2
	c1.1-0.1,2.3,1.5,3.5,2.3c1.3,0.7,2.6,1.7,4,1.9c3.6,0.5,7.2,0.6,10.2,0.8c-0.6,9.9-1.1,19-1.6,28c0.4,0,0.8,0.1,1.3,0.1
	c0.4-3.7,0.7-7.3,1.1-11.4c9.7,0,19.1,0,28.5,0c-0.2-0.5-0.4-1-0.5-1.6c1.9-1.1,3.7-2.2,5.6-3.3c0.3-0.2,0.9-0.1,0.9-0.2
	c2.2-7.2,8.7-3.7,13.1-4.9c4.7-1.2,9.9-1.2,14.7-0.9c5.1,0.3,10.2,1.7,15.2,2.6c2.6,0.5,6.1-0.4,5.7,4.2c0,0.4,1.8,1.3,2.7,1.2
	c4.9-0.6,9.8-1.5,14.9-2.3c0.8,2.5,1.3,4.2,1.8,5.8c0.4,0.1,0.8,0.1,1.2,0.2c0.4-1.3,1.1-2.6,1.2-3.9c0.5-7.8,0.8-15.6,1.4-23.4
	c0.1-1.6,1.6-3.1,2.3-4.8c0.6-1.3,1.2-2.7,1.3-4c0.3-4.7,0.1-9.4,0.6-14c0.4-4-1.4-8.8,3.4-11.7c0.5-0.3,0.4-1.9,0.4-2.9
	c0.3-7.3,0.3-14.7,1.1-22c0.4-4,1.5-8.2,3.5-11.6c0.8-1.4,3.6-3.7,7.3-2.5c4,1.3,8.7,0.6,13,1c4.1,0.4,8.2,1.2,12,1.7
	c5.5,10.7,2.1,21.7,2.7,32.4c0.2,2.6,1.6,5.2,2,7.8c0.4,2.7,0.6,5.5,0.5,8.2c-0.1,5.3-0.5,10.6-0.7,15.9c0.5,0.2,1.1,0.3,1.6,0.5
	c0.6-1.3,1.5-2.6,1.6-3.9c0.4-5.8,0.2-11.7,0.8-17.5c0.3-3.1-1.4-7.1,3.2-8.8c0.4-0.2,0.4-1.8,0.4-2.8c0.3-4.8,0.5-9.7,0.7-14.5
	c0.3-7.7-0.8-15.8,5.4-23.4c9.5-1.3,20.3-1.1,31,1.2c0.9,0.2,2.1,0.9,2.3,1.6c1,3.9,2.4,7.8,2.4,11.8c0.1,8.3-0.6,16.6-0.8,25
	c0,1.6-1.3,4.2,2.2,4.2c0.2,0,0.7,2.3,0.7,3.6c-0.1,6.3-0.5,12.7-0.6,19c0,2.6-2,6,2.5,7.4c0.5,0.1,0.4,2.5,0.4,3.7
	c-0.5,15.2-1.1,30.3-1.6,45.5c-0.1,2.8,0,5.6,0,7.9c7.1,0.8,13.7,1.6,21.1,2.5c0-6.4,0-13.8,0-21.3c0-4.2,1.9-6.5,6.2-7.1
	c1.1-0.2,2.4-1.9,2.8-3.2c0.6-2.3,0.6-4.9,0.8-7.6c3.7,0.5,7.9-2.3,9.4,3.2c0.1,0.3,0.9,0.6,1.3,0.5c7.2-1.6,7.1,3.4,6.8,8
	c3.8,0.8,7.1,1.5,10.9,2.2c0.2-3,0.5-7,0.7-11.1c0.4-10.6,0.8-21.3,1.2-32c0.2-6.3,1.5-7.7,7.9-8c3.2-0.2,6.4-0.4,9.6-0.1
	c5.8,0.7,11.5,1.8,16.2,2.5c0,16.1,0.1,31.5,0,46.9c0,4.6,2.6,6.8,5.5,9.9c4.1,4.5,7.9,4.3,13.2,4.3c5.2-0.1,10.4,3,15.6,4.4
	c1.7,0.5,3.7-0.3,5.4,0.2c4.7,1.4,10,0.4,14.2,4.7c3.3,3.3,8.3,0.5,8.8-4.3c0.2-1.6,0.3-3.2,0.5-5.1c2.2,0.2,4,0.4,5.7,0.6
	c2.4-4.8,6.9-4.9,12.5-0.6c0.7,0.6,1.5,2,2,1.9c6.1-1,8,3.3,9.3,7.8c5-0.8,10.2-5.8,13.1,2.4c3.5-1.8,1.1-8.1,6.8-7.5
	c3.4,0.4,6.9,0.1,10.8,0.1c0.2-3.5,0.3-6.4,0.5-10.6c2.6,0.9,4.6,1.7,6.8,2.3c1.7,0.5,3.6,0.7,5.4,0.8c5,0.2,10,0.3,15,0.3
	c4,0,7.6,0.3,6.7,5.4c9.9,2.2,19.5,4.4,29.6,6.7c0,7.8,0,15.3,0,22.9c4.1,0.5,7.7,1,12.1,1.5c0-4,0-7.4,0-10.8
	c0.1-7.7,3.1-10.6,10.9-10c1.9,0.1,3.7,1.5,5.6,1.7c3.7,0.3,7.6,0.6,11.3,0.2c2.8-0.3,5.4-2,7,1.9c0.3,0.8,2,1.4,3.1,1.6
	c8.8,0.9,17.6,1.7,26.4,2.6c0.6,1.7,1.2,3.2,1.7,4.7c0.5,0,1-0.1,1.4-0.1c0.2-4.1,0.5-8.2,0.7-12.2c9.4-3.2,18.5-4.4,28-1.5
	c1.4,0.4,3.6-1.4,5.1-2.5c2-1.4,3.7-3.3,5.9-5.2c11.3,10.8,18.5,22.8,15.6,40c1.5-1.3,1.9-2.1,2.4-2.1c7.3,0.4,6.1-4.8,6.1-9.1
	c0.1-3.5,0-7,0-9.4c2.6-1.7,4.1-2.9,5.8-3.7c1.7-0.8,3.5-1.3,5.8-2.2c0.3-6.5,0.6-13.5,0.9-20.9c5.4-0.5,10.6-1.4,15.8-1.4
	c4.6,0,9.1,1.1,13.7,1.6c1.3-4.3,2.3-7.7,3.4-11.5c3-0.2,5-1.5,5.3-5.3c0-0.9,3.3-2.5,5-2.4c6.3,0.5,12.5,1.5,17.8,2.2
	c2.7,3.4,5.2,6.3,7.4,9.4c0.6,0.9,0.6,2.3,0.6,3.5c0,16.3,0,32.6,0,49.6c2.4,0.9,5.6,2.7,9,3c5.5,0.6,7.7-1.1,7.9-6.7
	c0.1-4.6,1.7-6.7,6.6-6.3c0.4-11.1,0.9-21.9,1.3-32.7c0.2-6.5,0.3-13,0.4-19.5c0.2-9.4,0.2-9.4,9.6-12.3c0.2-2.5,0.4-5.1,0.7-8.3
	c10.7-1.4,21.3-2.8,32.5-4.3c0.3-3.7,0.6-8,1-13.6c11.5,0,22.7,0,34,0c4.7,0,9.3,0.1,14-0.1c4.1-0.2,7.9,0,12.1-2.6
	c3.5-2.1,9.3-0.4,14.9-0.4c0,1.7,0,3.4,0,5.2c-0.2,24.8-0.4,49.7-0.4,74.5c0,2.3,1.3,5.6,3,6.5c2.9,1.6,2.3,3.7,2.3,5.8
	c0.1,7.4,0,14.9,0,22.3c8.4,1.3,9.7,0.2,9.8-7.5c0.1-4,0-8,0-12.3c8.1,0,15.5,0,23.4,0c0.3,2.2,0.6,4.4,1,7c2.7,0.1,5.3,0.3,8,0.4
	C1065,747.3,1065,758.7,1065,770z"/>
<g>
	<path d="M1205.8,611.7c1.2,1.4,0.9,3.2,1.3,4.8c0.1,0.6-0.1,1.4,0,2.1c0.2,2.7,0.2,5.5,0.5,8.2c0.1,1.3,0.1,2.5,0.4,3.8
		c0.4,1.7,0.9,3.5,2.6,4.4c0.2,0.1,0.4,0.3,0.4,0.5c0.1,0.7,0.6,0.9,1.2,1c1.1,0.2,1.2,0.4,0.5,1.3c-0.9,1.4-1.3,3-1.2,4.6
		c0.1,1.7,0.2,3.5,0.4,5.2c0.5,3.9,0.6,7.9,0.9,11.8c0.3,3.2,0.6,6.5,0.8,9.7c0,0.4,0.1,0.8,0.7,0.5c0.6-0.3,0.8,0,0.9,0.5
		c0.2,0.7,0.4,1.3,0.8,2c0.6,1.2,1.1,2.5,0.1,3.8c-0.3,0.4-0.4,1,0.3,1.1c0.9,0.2,0.9,0.7,1,1.4c0.1,1.4,1.3,3.1,2.4,3.3
		c1.6,0.2,3.3-0.1,4.8-0.6c1.7-0.5,3.5-0.9,5.2-1.2c1-0.2,2.3-0.3,2.8-1c0.7-1.1,1.6-2.2,1.9-3.5c0.2-0.6,0.3-1.3,0.4-1.9
		c0.4-1.6,1.5-2.3,3.1-1.9c0.9,0.2,1.7,0.5,2.6,0.3c1.2-0.3,2.3,0.2,3.3,0.6c0.4,0.2,0.5,0.5,0.4,0.9c-0.1,0.5-0.2,1-0.2,1.5
		c-0.1,0.6-0.3,1.3,0,1.9c0.6,1.2,1.4,2.3,1.8,3.5c0.1,0.3,0.4,0.3,0.6,0.2c1-0.4,2-0.2,3-0.1c0.4,0,0.6,0.2,0.7,0.7
		c0.1,1,0.3,1.8,1.3,2.5c1.1,0.8,1.7,1.9,1.5,3.4c-0.1,0.4,0,0.8,0.1,1.2c0.4,1.3,0.4,2.7,0.6,4.1c0.3,1.9,0.5,3.8,0.4,5.7
		c0,0.6,0.2,1.2,0.4,1.8c0.1,0.3,0.4,0.5,0.7,0.4c1-0.1,1.4,0.4,1.6,1.3c0.1,0.5,0.2,1,0.2,1.5c0,0.8-0.2,1.6,0,2.3
		c0.5,2.2,0.4,4.4,0.6,6.6c0.2,1.8,0.7,3.5,0.3,5.4c0,0.1,0,0.2,0.1,0.3c0.5,0.7,0.4,1.6,0.4,2.4c0,0.7-0.1,1.4,0.1,2.1
		c0.4,1.8,0.2,3.7,0.6,5.6c0.1,0.4,0,0.8,0.4,1c0.5,0.1,1.1,0.5,1.6-0.1c0.3-0.3,0.6-0.6,1-0.9c0.3-0.2,0.5-0.3,0.9-0.1
		c1.4,0.8,1.6,1,1.3,2.8c-0.2,1,0.1,1.5,1.1,1.7c0.6,0.2,1.2,0.6,1.5,1.2c0.2,0.5,0.5,0.9,0.7,1.4c0.4,0.7,0.9,1.4,1.7,1.5
		c1.7,0,3.3,0.3,5,0.4c0.7,0.1,1.3-0.4,2-0.4c2.5,0,5,0,7.4,0c0.8,0,1.1,0.3,1.1,1.2c0,6.8,0,13.6,0,20.4c0,4.1,0,8.2-0.1,12.3
		c-94.5,0-189.1,0-283.6,0c0-0.3,0-0.5,0-0.8c0-10.5,0-21,0-31.5c0-1.6,0-1.6,1.7-1.6c0.3,0,0.6,0,0.9,0c3.7,0.2,7.5-0.2,11.2-0.3
		c2.1-0.1,4.1,0,6.2,0c0.8,0,1.4-0.3,1.4-1.1c0.1-1.6,0.6-3.1,0.4-4.7c-0.2-1.6,0.3-3.2,0.5-4.7c0.3-2,0.2-4,0.5-6
		c0.3-1.7,0.1-3.4,0.3-5.1c0.2-2.2,0.3-4.4,0.4-6.6c0.1-1.1,0.4-2.2,0.5-3.3c0-0.4,0.3-0.7,0.8-0.8c0.4-0.1,0.7-0.3,0.8-0.7
		c0.1-0.6,0.3-1.1,0.4-1.7c0.1-2.9,0.4-5.8,0.8-8.7c0.2-1.2,0.3-2.5,1.9-2.9c0.5-0.1,0.4-0.4,0.2-0.7c-1-1.1-0.5-2.3-0.4-3.5
		c0.1-0.5,0.4-0.7,0.9-0.8c1-0.1,2,0.2,2.9,0.6c0.6,0.2,1.4,0.4,1.6-0.3c0.3-0.7,0.8-1.1,1.3-1.4c0.5-0.3,1-0.7,1-1.4
		c0.1-0.6,0.2-1.2,0.3-1.8c0-0.8,0-1.7-0.5-2.4c-0.5-0.7-0.2-1.6,0.7-1.7c1.2-0.1,2.4-0.5,3.7-0.4c2.1,0.1,3.8,1.5,3.7,3.6
		c-0.1,1.3,1.1,1.9,1,3c0.9,0.4,1.6,1.3,2.6,1.1c1.8-0.2,3.6,0.4,5.1,1.1c1.3,0.6,2.4,0.2,3.5,0.1c0.3,0,0.6-0.1,1-0.2
		c0.9-0.1,1.4-0.6,1.7-1.4c0.3-1.1,0.3-2.3,1.5-2.9c0.1,0,0.2-0.2,0.2-0.3c0-1.3,0.4-2.7-0.4-3.9c-0.6-0.9-0.1-2.3,0.9-2.5
		c1.5-0.2,1.4-0.2,1.5-1.7c0.1-3,0.3-6.1,0.4-9.1c0.2-6.1,1.2-12.2,0.7-18.4c-0.1-0.9-0.1-1.7-0.8-2.3c-0.3-0.3-0.4-0.9,0.1-1
		c0.8-0.2,1.4-0.6,1.6-1.5c0-0.1,0.1-0.2,0.2-0.2c1.7-1,2.2-2.8,2.4-4.6c0.4-3.8,0.6-7.5,0.7-11.3c0.1-1.4,0-2.8,0.5-4
		c0.7-1.6,0.9-3.3,0.9-5c0-1.3-0.1-2.6,0.1-3.8c0.3-1.7,0.7-3.4,0.5-5.1c-0.2-1.6,0.5-2.7,1.1-3.9c0.2-0.4,0.4-0.7,0.8-0.8
		c1.7-0.5,3.3-1.2,5.1-1.4c2.4-0.3,4.8-0.2,7.2-0.2c1,0,1.9-0.2,2.6-0.9c0.3-0.3,0.7-0.4,1.1-0.4c1.5,0,3-0.4,4.6-0.5
		c2.3-0.1,4.7-0.6,7-0.8c2.3-0.2,4.7-0.8,7-0.9c3.5-0.2,6.8-1,10.3-1.2c3.1-0.2,6.1-0.6,9.1-1c1.3-0.2,2.5-0.3,3.8-0.4
		c2.1-0.3,4.2-0.5,6.3-0.6c2.7-0.1,5.4,0.3,8.1,0.3c3.3,0,6.5,0.6,9.8,0.4c0.1,0,0.2,0,0.3,0c3.8,0.5,7.7,0.1,11.5,0.6
		c2.3,0.3,4.7,0,7.1,0.2c1.8,0.2,3.7,0.4,5.6,0.1c1.9-0.3,3.8-0.2,5.6-0.3c0.7,0,1.3,0.1,1.7,0.7c0.3,0.4,0.8,0.5,1.2,0.4
		c2.3-0.5,4.7-0.2,7.1-0.3c0.9,0,1.8-0.2,2.6,0.4c0.1,0.1,0.3,0.1,0.4,0c0.8-0.2,1.6-0.1,2.4,0.2c1.5,0.6,3.1,1,3.7,2.9
		c0.2,0.7,0.4,1.4,0.4,2.2c-0.1,1.8-0.1,3.7,0.9,5.4c0.3,0.5,0.4,1.1,0.1,1.5c-0.6,1.2-0.3,2.6-0.3,3.8
		C1205.4,611.2,1205.6,611.5,1205.8,611.7 M1099,676.8C1099,676.8,1099.1,676.8,1099,676.8c0.1,0.3,0.1,0.6,0.1,0.8
		c-0.4,1.5-0.4,3.1,0,4.6c0.2,1.1,0.2,2.2,0,3.4c-0.4,2.4-0.6,4.8-0.6,7.2c-0.1,7.7,0,15.5,0,23.2c0,5.3,0,10.6,0,16
		c0,1.2,0.3,1.6,1.6,1.6c1.2,0,2.4,0,3.5,0c0.4,0,0.8,0,1.1-0.3c0.9-1,2.1-0.9,3.1-0.5c1.1,0.5,1.9,0.3,2.6-0.5
		c0.9-0.9,2-1.1,3.1-1.1c0.5,0,1.1,0.2,1.1,0.7c0.1,1.2,1.4,1.9,1.2,3.2c0,0.2,0.2,0.3,0.4,0.4c0.7,0.4,1,1,1,1.8c0,0.4,0,0.8,0.4,1
		c0.5,0.2,0.6,0.7,0.7,1.2c0,0.6,0.3,0.8,0.9,0.8c1,0,2.1,0,3.1,0c0.7,0,1-0.3,1-1c0-1,0-2.1,0-3.1c0-0.3,0-0.7,0.4-0.8
		c0.4-0.1,0.8,0,1.1,0.4c0.2,0.3,0.3,0.7,0.3,1c0,0.8,0,1.5,0,2.3c0.1,1,0.9,1.6,1.9,1.3c0.8-0.2,1.6-0.3,2.4-0.1
		c1,0.3,1.9,0.3,2.9,0.2c1.1,0,2.3,0,3.4,0c1.1,0,2.3,0.2,3.4,0.1c1.9-0.2,3.8-0.2,5.7-0.3c1.2-0.1,2.5,0.1,3.8,0.4
		c0.9,0.2,1.7,0.4,2.5,0.2c1.4-0.3,2.8-0.2,4.2-0.2c2.1,0,4.2-0.2,6.3-0.1c3.1,0.1,6.1,0,9.2,0.1c1,0,2-0.5,3-0.4
		c0.3,0,0.4-0.2,0.5-0.5c0.1-0.5,0.3-1.1,0.4-1.6c0.3-1.6,0.4-3.3,2.3-4c0.3-0.1,0.5-0.4,0.5-0.8c-0.1-2.6,0.2-5.2-0.2-7.8
		c-0.2-0.9-0.1-1.8-0.1-2.7c0-0.4,0.2-0.6,0.5-0.8c0.6-0.3,0.8-0.9,0.9-1.5c0.2-1.4-0.6-2.7-0.1-4c0,0-0.1-0.2-0.1-0.2
		c-0.7-0.1-1.1-1-2-0.9c-0.5,0.1-0.8-0.2-0.9-0.8c-0.1-0.5,0.3-0.7,0.7-0.8c0.9-0.2,1.8-0.1,2.7-0.2c0.4,0,0.7-0.1,0.7-0.5
		c0.1-0.4,0.1-0.8-0.2-1.1c-0.3-0.2-0.7-0.1-1-0.2c-1-0.1-1.6-1.1-1.1-1.9c0.3-0.5,0.6-1,1-1.4c0.7-0.8,1-1.6,1-2.7
		c-0.2-4-0.2-8-0.3-11.9c-0.1-6.8-0.5-13.6-0.5-20.5c0-1.6,0-3.2,0-4.8c0-0.8-0.3-1.3-0.9-1.7c-0.4-0.3-0.8-0.6-1.1-0.9
		c-0.2-0.2-0.4-0.4-0.7-0.2c-0.3,0.1-0.3,0.4-0.3,0.7c0.1,0.5-0.1,0.7-0.6,0.7c-0.8,0.1-1-0.2-1-1c0-0.6,0.1-1.2-0.8-1.2
		c-0.3,0-0.6,0-0.6-0.4c-0.1-0.3,0.2-0.5,0.4-0.7c0.3-0.2,0.6-0.3,0.9-0.6c0.6-0.9,0.6-0.9,1.4-0.1c0.8,0.7,1.9,0.7,2.6-0.1
		c0.8-0.9,0.5-1.8,0.2-2.8c-0.2-0.7-0.2-1.4-0.1-2.1c0.2-0.9,0.2-1.8,0.1-2.6c-1.6-10.3-6.5-18.8-14.9-25.1
		c-9.5-7.2-20.2-9.4-31.9-7.3c-7.7,1.4-14.4,4.9-20.1,10.2c-7.5,7-11.6,15.8-12.6,26c0,0.5-0.1,1,0.1,1.5c0.4,1,1.2,1.8,0.8,3.2
		c-0.3,0.9-0.2,1.3-1.2,1.4c-0.3,0-0.6,0-0.8,0.3c-0.6,0.9-0.3,2.8,0.5,3.5c0.3,0.2,0.4,0.5,0.5,0.9c0.1,2.1,0.3,4.2,0.1,6.2
		c0,0.2,0,0.5,0,0.7c0,0,0.1,0,0.1,0C1098.9,677.1,1099,677,1099,676.8z M1226.4,734.7c1.7,0,3.4,0,5.1,0c0.3,0,0.6,0.1,0.7-0.2
		c0.1-0.3-0.1-0.4-0.3-0.6c-0.4-0.4-0.4-0.8-0.3-1.3c0-0.2,0.2-0.5,0.1-0.7c-0.6-1.5-0.2-3-0.3-4.5c0-0.5,0-1.1,0.3-1.5
		c0.4-0.6,0.4-1.2,0.3-1.9c-0.7-3.6-3.2-6-5.7-8.3c-0.2-0.1-0.4-0.2-0.6-0.3c-1-0.4-2.1-0.4-3-1c-0.6-0.4-1.4-0.4-2.1-0.3
		c-2.3,0.3-4.2,1.4-6,2.7c-1.8,1.3-2.9,2.9-3,5.2c0,1.1-0.2,2.2-0.6,3.2c-0.5,1.2-0.5,2.3-0.5,3.5c0,0.6,0.3,0.9,0.9,0.9
		c0.6,0,1.3,0,1.9,0c0.6,0,1,0.2,1.2,0.9c0.6,1.5,1.4,2.7,3.3,2.7c1,0,2,0.3,2.8,1c0.3,0.3,0.7,0.3,1.2,0.3
		C1223.2,734.7,1224.8,734.7,1226.4,734.7z M1057.9,735.4C1057.9,735.4,1057.9,735.4,1057.9,735.4c2.6,0,5.2,0,7.8,0
		c1.5,0,1.5,0,1.5-1.5c0-2.1,0-4.2,0-6.3c0-1.5-0.2-3-0.7-4.5c-1.2-3.2-3.1-5.4-6.2-6.7c-1-0.4-1.9-0.7-2.9,0
		c-0.6,0.4-1.4,0.6-2.1,0.9c-1.1,0.4-1.8,1.2-2.3,2.2c-0.2,0.4-0.4,0.7-0.8,1c-0.6,0.3-1.3,0.5-1.5,1.2c-0.4,1.1-1.1,2.1-1.3,3.2
		c-0.3,1.3-0.5,2.7-0.5,4c0,1.6,0.2,3.2-0.2,4.8c-0.3,1.2,0.1,1.8,1.4,1.8C1052.6,735.4,1055.3,735.4,1057.9,735.4z"/>
</g>
<g>
	<path d="M571.2,591.3c0.3-1,1.2-1.6,1.8-2.3c0.4-0.4,1.1-0.7,0.8-1.4c-0.2-0.6-0.9-0.5-1.4-0.6c-0.4-0.1-0.8,0-1.2-0.7
		c2.6,0.8,2.7-1.7,3.8-2.7c0.5-0.5-0.1-0.9-0.6-1.1c-0.4-0.2-1.4-0.3-1.2-0.8c1.1-2.6-1.2-1.3-1.7-1.4c-2.6,0-4.9,1.2-7,2.5
		c-1.4,0.8-1.2,0-1-0.9c0.1-0.1,0.3-0.3,0.4-0.4c2.4-2.5,5.5-4.2,8-6.7c1.2-1.3,2.1-2.5,1.1-4.5c-0.6-1.4-0.9-0.8-1.6-0.4
		c-0.7,0.5-1.3,1.7-2.1,0.9c-0.9-0.9-0.6-2.3,0.3-3.3c0.7-0.8,1.7-1.1,2.6-1.5c0.6-0.3,1.3-0.3,1.8-0.9c-0.7-1-2-0.6-2.8-1.3
		c1.4-0.6,2.4-2.1,4.3-1.3c0.5,0.2,0.7-0.5,0.5-1c-0.5-1.4-0.1-2.9-0.1-4.4c-0.6,0-0.1,0.7-0.6,0.7c-0.4-3.6,1.8-7.2,5.2-8.7
		c2-0.9,4-1.5,6.1-1.9c0.4-0.1,0.9-0.1,1-0.6c0.2-0.6-0.3-0.8-0.7-1.1c-3.9-3-9-1.7-11,2.8c-1,2.3-1.6,4.7-3.2,6.6
		c-0.6,0.7-1.2,1.4-2,2.3c-0.2-1.1,0.9-2.4-0.9-2.5c0,0-0.2-0.4-0.1-0.5c1.3-1.6,1.1-3.5,0.6-5.3c-0.4,0.3-0.9,0.6-1.6,1.2
		c-0.2-1.7,1.1-3.2,0.3-4.7c-0.2-0.3,0.6-0.4,0.9-0.6c1.1-0.6,1.7-1.8,1.8-2.9c0.1-1.1-1.2-1.1-1.9-1.5c-2-1.1-4-2.1-6.1-3
		c0.8-0.4,1.6,0,2.3,0.4c1.4,0.7,2.9,1.3,4.3,2.1c1.7,1,3.8-0.2,5.5,0.9c0.1,0.1,0.5-0.2,0.6-0.4c0.2-0.4-0.1-0.6-0.4-0.8
		c-1.5-0.8-1.4-1.5,0.1-2.1c1-0.4,1-1.1,0.4-1.9c-0.5-0.7-1-1.4-1.6-2.1c-2.3-2.5-3-5.4-2.9-8.6c0.1-1.5-0.8-2.8-0.5-4.3
		c0.3-1.4,1-1.8,2.2-1.4c0.9,0.3,1.8,0.6,2.5,1.3c1.4,1.4,2.8,2.8,5.1,2.6c1.1-0.1,1.4,1.3,2.1,2c2.5,2.3,4,5.2,4.8,8.5
		c0.1,0.5-0.1,1.4,0.7,1.5c0.7,0.2,1.3-0.5,1.6-1c1-1.2,2.2-2.3,3.3-3.4c1.8-1.7,3.4-1.8,5.2-0.1c-0.8,0.1-1.4,0.3-1.3,1.3
		c0.2,5.8,0.4,11.6,0.5,17.3c0,1.1,0.4,1.6,1.6,1.4c2.4-0.5,4.7,0.5,7.2,0.1c2.2-0.4,3.9,2.6,6.3,3.2c0.5,0.1,0.9,0.6,1.4,0.5
		c0.2-1.9,0-2.4-2-4.2c-2.9-2.7-5.4-5.7-7.2-9.2c-1.7-3.4-2.9-7.1-6.3-9.5c-0.2-0.1-0.2-0.6-0.3-0.9c6.6,3.9,12.2,8.8,15.6,15.7
		c0.7-1.6,0.5-3.2-0.8-5.2c-1.7-2.5-2.6-5.4-3.7-8.2c-0.2-0.5-0.5-1.2,0.1-1.7c0.7-0.5,1.4,0.2,1.6,0.7c1,2,2.5,2.8,4.8,2.7
		c1.2-0.1,1.2,1,1.1,1.9c-0.1,1.5-0.9,2.9-0.5,4.8c1.8-1.8,2.1-4.3,3.9-5.9c-0.8,3.4,0.1,7.5-3.9,9.7c-0.5,0.3-1,0.7-0.7,1.2
		c0.3,0.7,0.9,0.2,1.4,0c1.7-0.7,3.6-1.1,4.6-2.9c0.2-0.4,0.7-0.8,1.1-0.2c1.6,2.5,3,5,1.7,8.1c-0.2,0.6-0.3,1.3-0.3,1.9
		c0,8-1.7,15.8-2.7,23.7c-0.7,5.1-1.4,10.3-1.3,15.5c0.1,5.1-0.7,10.1-1.9,15c-0.3,1.4-0.5,2.9-0.5,4.3c-0.1,2.8,0.3,5.6-0.5,8.3
		c-0.4,1.5-0.3,3.1,0.5,4.6c0.9,1.5,0.7,3.1-0.6,4.4c-0.9,0.8-1.2,1.7-0.6,2.8c0.5,1,0.3,2.1-0.3,3c-2,3.4-2.8,7.2-2.6,11.1
		c0.1,1.3-0.1,2.5-0.9,3.6c-0.4,0.5-0.7,1.3-0.7,1.9c0.3,3.4-1.1,6.7-0.9,10.1c0.1,1.7-0.6,3.3-0.9,4.9c-1.1,4.5-1.4,9.1-2.1,13.7
		c-0.4,2.8-0.7,5.7-1.1,8.4c-0.6,4.6-0.6,9.1-0.7,13.7c0,1.2-0.3,2.4-1.7,2.9c-0.7,0.3-0.9,1.1-0.7,1.7c1,2.3,0.3,4.6-0.2,6.6
		c-0.8,3,0,6.3-2.2,9c-0.9,1,0.1,2.6-0.4,3.9c-0.2,0.4,0.4,0.7,0.8,0.7c1,0.2,1.9,0.6,2.9,0.6c4.9,0.1,10,0.7,14.8-0.1
		c5.9-1,11.7-0.3,17.5-0.7c0,6.7,0,13.5,0,20.2c0,1.5-0.3,1.9-1.8,1.9c-52.6,0-105.1,0-157.7,0c-6.5,0-12.9,0-19.4,0
		c-1.1,0-1.2-0.3-1.2-1.3c0-7.6,0-15.2,0-22.8c4.3-0.4,8.6,0.7,12.9,1c3.8,0.3,7.7,0.4,11.5,0.6c3.1,0.1,6.2,0.4,9.3,0.6
		c1.1,0.1,2.3-0.2,3.5-0.3c4-0.2,7.9,0.5,11.9-0.3c2.1-0.4,4.4-0.3,6.5-0.3c7.3-0.1,14.6-1,21.9-1.6c1.7-0.1,3.4,0.2,5.2,0.2
		c0.9,0,0.7,0.6,0.7,1.1c0,0.7-0.6,1.5,0,2.3c0.8-1,0.3-2.2,1-3.4c1,1.3,1.9,1.1,3.1,0.2c1-0.8,2.4-0.8,3.6-1
		c0.6-0.1,1.1,0.1,1.2,0.7c0.2,1.4,1.2,1.4,2.3,1.3c5.9-0.3,11.7,0.6,17.6,0c1.2-0.1,2.1,0.1,2.8,1.5c0.8,1.5,2.7,0.7,4.1,0.3
		c0.9-0.2,1.8-0.9,2.8-1.1c1.2-0.3,0.9-1.3,0.9-2.1c0-1.7-0.2-3.5,2.4-3.5c0.7,0,0.8-0.7,0.4-1.2c-1-1.2-1.1-2.4-1.2-4
		c-0.3-4.7-1.7-9.2-2.7-13.7c-0.7-3.2-1.3-6.3-2-9.5c-0.6-3-1.5-5.9-1.9-8.9c-0.5-3.6-2-6.9-2.2-10.5c-0.1-2.5-1.4-4.9-1.8-7.5
		c-0.8-4.7-2.9-9.1-1.4-14.1c0.5-1.7-0.1-3.6,0.8-5.3c0.1-0.2,0.1-0.7,0-0.8c-1.5-1.1-1.3-3.2-2.8-4.5c-1.6-1.3-1.3-3.7-0.7-5.6
		c0.3-1-0.5-4.7-1.3-5.3c-1.6-1.2-2.3-3-1.6-5.1c0.9-2.8,1.7-5.6,3.2-8.1c0.9-1.4,1-2.9,0.7-4.6c-0.8-3.8-1.4-7.7-2.1-11.6
		c-0.1-0.8-0.1-1.6-0.9-2.1c0.9-2.1,2.4-3.8,3.8-5.5C570.4,593.1,571.2,592.4,571.2,591.3z M595,571.2c-0.1-1.9-0.8-3.8,1.5-4.6
		c0.3-0.1,0-0.6-0.1-0.9c-0.6-2.7-1.4-5.3-0.5-8.1c0.3-0.7,0.7-1.3,1-1.9c0.2-0.6,0.3-1.3-0.2-1.7c-0.5-0.5-1,0.2-1.4,0.4
		c-1.1,0.6-2.1,1.1-3.1,1.8c-3.3,2.1-6.5,4.2-9.7,6.3c-0.5,0.3-1.6,0.9-0.2,1.5c2.1,0.8,4.1,1.9,6.2,2.9
		C590.8,568,592.9,569.1,595,571.2z M602.5,569.7c0,0.8-0.1,1.5,0.7,1.8c0.8,0.3,0.9-0.5,1.3-0.9c0.5-0.8,1.1-1.7,1.7-2.4
		c0.9-1,2.3-1.4,3-2.8c0,0,0.1,0,0.2,0c1.3,0.2,1-0.5,0.5-1.1c-2.7-2.9-5.8-5.5-8.8-8c-0.2-0.2-0.5-0.5-0.9-0.3
		c-0.3,0.2-0.2,0.6-0.2,0.9c0.1,0.6,0.3,1.2,0.9,1.5c0.6,0.3,1,0.9,0.7,1.5c-0.7,1.3,0,2.4,0,3.6
		C601.4,565.7,603.5,567.5,602.5,569.7z M600.5,552.4c-0.1,0.3-0.1,0.4-0.1,0.4c4.2,3.8,8.8,7.3,12.5,11.6c0.4,0.5,0.8,0.3,1.1-0.2
		c0.9-1.3,0.6-4.3-0.3-5.7C610.5,554,605.3,553.8,600.5,552.4z M602,598.7c0.7,1.8,2.8,1.6,2.9,3.5c0,0.4,0.7,0.3,0.8-0.4
		c0.4-1.9,2.8-3,2-5.3c2.1-2,0.8-5.2,3-7.2c-2.8,0.9-5.4,1.9-7.9,3c-2.6,1.1-2.4,1.1-0.9,3.2c1.1,1.5,2.1,2.1,3.5,0.5
		c0.3,1-0.7,1.4-0.8,2.1C604.4,599.7,603.7,600.4,602,598.7z M578.9,567.9c0.4,1.8,0.4,3.7,0.5,5.5c0.1,1,1,2.1,1.6,1.3
		c1.8-2.1,2.9,1.2,4.3,0.3c0.3,2,1.4,0.5,1.9,0.3c0.7-0.3,1.3-0.8,2.2-0.8c0.6,0,1.1-0.3,1.2-0.9c0.1-0.5-0.3-0.8-0.7-1.1
		c-3.3-1.7-6.6-3.2-9.6-5.5C579.6,566.6,578.7,566.5,578.9,567.9z M595.7,552.3c-0.8-1.1-1.8-1.1-2.8-1.2c-2.5-0.3-4.6,1-7,1.2
		c-3.1,0.2-3.2,0.3-3.4,3.4c-0.1,1.3-0.8,2.5-0.9,4.2C586.6,557.6,590.7,554.3,595.7,552.3z M594.7,584.7c-0.8,0.9-1.6,1.4-2.6,0.5
		c-1-0.9-2.1-0.9-3.3-1.1c-1.5-0.2-3.1,0.1-4.5-0.8c-0.7-0.5-1.6-0.1-1.9,0.6c-0.5,0.9,0.6,1,1.1,1.3c1.9,1.1,4.2,1.4,6,2.3
		c1.6,0.8,2.9-0.2,4.3,0.4c0.3,0.1,0.5-0.4,0.5-0.7C594.4,586.4,594.6,585.6,594.7,584.7z M578.1,594.3c0-2.7-1-3.3-3.2-2.4
		c-2.3,0.8-3.5,2.7-5,4.5c-0.3,0.4-0.7,0.9-0.2,1.4c0.4,0.4,0.9,0.9,1.5,0.8c0.7-0.1,0.7-0.7,0.8-1.2c0.6-2,1-2.1,2.6-0.8
		c0.5,0.3,1,1.4,1.6,0.7C576.9,596.3,578,595.4,578.1,594.3z M596.3,535.8c0.2,2.7-1.4,4.8-2.5,7.1c-1.8,3.7-1.2,5.3,2.9,7.1
		C596,545.2,597.2,540.5,596.3,535.8z M584.3,597.2c-0.6-2.1,1.2-2.2,2.2-2.9c0.7-0.5,1.8,0.6,2.6,1c0.7,0.3-0.2,0.8-0.5,1.2
		c-0.8,0.8-0.6,1.9,0.3,2.2c1.3,0.5,1.9-0.9,2.5-1.8c0.4-0.7,0.7-1.5-0.6-2c-2.8-1-5.4-2.1-8.2-3.2c-0.4-0.2-0.9-0.4-1.1,0.3
		C583.5,593.1,581.7,596,584.3,597.2z M609.9,572.7c-0.9,0.5-0.8,1.3-1.2,1.8c-1.1,1.3-0.1,3.3-1.5,4.5c-0.5,0.4-0.9,0.9-0.4,1.5
		c0.6,0.7,1.4,1.4,2.3,1.5c0.9,0.1,0.2-1,0.8-1.5c0.1,0.6,0.1,1.1,0.2,1.7c0.8-3.2,0.6-6.3,0.4-9.5c-0.1,0.7-0.1,1.5-0.2,2.2
		c-0.1,0-0.1,0-0.2,0C610,574.3,610,573.6,609.9,572.7z M583.3,589.8c1.5,1.5,3.4,1.8,4.9,2.7c1.4,0.8,2.8,1.6,4.5,1.7
		c0.7,0,1-0.3,1.3-0.7c0.4-0.4,0.1-0.7-0.3-0.9C590.5,590.9,587.5,588.8,583.3,589.8z M595.8,607.9c0.8-3.9,0.1-7.6,0.1-11.5
		c-1.5,1.8-2.3,3.8-2.2,5.7c0.1,1.8-1.5,3.7,0,5.4c0.8,0,0.4-1,1-1.1C595.3,606.5,595.1,607.3,595.8,607.9z M586.8,543
		c-1.4-3.3-4-5.7-5.8-8.6c-0.1-0.2-0.5-0.3-0.7,0c-0.1,0.3-0.2,0.7-0.1,0.9c0.9,1.2,0.9,2.5,0.8,3.9c-0.1,0.7,0.5,1.5,1.1,1.8
		C583.5,541.9,584.9,542.9,586.8,543z M616.5,583.6c2.5,0.2,2.5,0.2,2.4-2.2c0-0.1,0-0.1,0-0.2c0-1.4-0.2-3-1.5-3.4
		c-1-0.3-1.6,1.3-2.3,2.1c-0.8,0.9-1.5,2-1.1,3.1C614.4,584.2,615.8,583.1,616.5,583.6z M621.7,557.1c-1.2-0.2-2.2-0.4-3.2-0.7
		c-0.8-0.2-1.6-0.3-1.8,0.6c-0.3,1.1-0.7,2.8,0.3,3.1c2,0.6,3.9,1.3,5.8,2.5C620.3,561.1,621.2,559.2,621.7,557.1z M622.2,565.3
		c0-0.1,0.1-0.3,0.1-0.4c-1.7-0.7-3.4-1.4-5.1-2c-0.6-0.2-1,0.2-1.2,0.8c-0.2,0.8-0.7,1.6-0.4,2.5c0.3,0.7,1,0.3,1.6,0.2
		C618.8,565.9,620.5,565.6,622.2,565.3z M570.5,547.6c2.7-1.8,5.2-3.3,8.2-4.2c0.4-0.1,0.9-0.2,0.9-0.7c-0.1-0.6-0.7-0.6-1.1-0.5
		c-1.5,0.2-3,0.4-4.4,1.1C572.2,544.3,571,545.7,570.5,547.6z M573.4,574.5c0.9,0.1,1.6,0.1,2.2,0.2c1.1,0.1,1.8-0.5,1.8-1.4
		c0-1.7-0.3-3.3-0.4-5C575.8,570.5,574.6,572.4,573.4,574.5z"/>
	<path d="M571.2,591.3c0.1,1.1-0.7,1.8-1.4,2.5c-1.4,1.7-2.9,3.4-3.8,5.5c0.8,4.8,1.6,9.6,2.6,14.4c0.5,2.5-0.7,5.2-2.2,6
		c-1.6,0.8-1.7,2.6-3.1,3.3c-0.6-0.6-0.4-1.2-0.5-1.8c-0.1-1.3-0.2-2.5-1.3-3.6c-1-1-1.3-2.4-0.6-3.7c0.8-1.5,0.5-2.7-0.3-4.1
		c-1-1.8-1.5-3.8-2.7-5.5c-1.6-2.1-0.7-5.7,1.5-7.2c-1-0.7-1.3-1.6-1.2-2.7c0.3-3.3-1.9-5.7-3.2-8.4c-0.7-1.4-1.3-2.7-1.7-4.1
		c-0.6-2.4-1.3-4.9-1.8-7.3c-0.6-2.5-2.1-4.7-3-7.1c-0.5-1.2-0.9-2.4-0.8-3.7c0.5-4.9-1.1-9.5-2-14.2c-0.1-0.4-0.2-0.8-0.3-1.2
		c-0.1-0.6-0.4-1.4,0.4-1.5c1-0.1,0.8,0.7,0.9,1.4c0.3,2,1,4.1,2.3,5.5c2.2,2.4,2,5.2,2.4,8c0.1,0.7,0.2,1.3,0.3,2
		c-0.1,2.9,2.5,4.1,3.8,6.6c0.7-2.1,1.2-3.8,1.8-5.4c0.6-0.5,0.5-1.5,1.5-1.9c0.4,1.1-0.1,2.2-0.3,3.1c-0.9,4.1,0.2,7.6,2.4,11
		c0.9,1.3,1.7,2.7,2,4.3c0.2,0.8,0.1,1.7-0.8,2.1c-1,0.5-1.2-0.6-1.6-1.1c-0.3-0.4-0.5-1-0.9-1.3c-0.4-0.3-0.2-1.5-1.2-0.9
		c-0.7,0.4-2-1.5-2.3,0.8c-0.2,1.3,0.4,1.9,1.2,2.4c0.7,0.4,1,1,1.5,1.5c0.6,0.7,1.1,1.4,2.3,1.2c1.5-0.2,2.3,0.9,2.4,2.4
		c0.1,1.1-0.1,2.3-0.1,3.4c0,0.5-0.3,1.2,0.4,1.3c1,0.2,1.2,0.5,0.6,1.4c-0.5,0.8,0.3,1.4,0.9,1.7c0.9,0.4,0.9-0.5,1.1-1
		c1.4-3.3,0.9-6.1-2-8.4c-1.2-0.9-1-2.1-0.5-3c0.5-1,1.7-0.8,2.7-0.3c0.6,0.3,1.2,0.8,1.9,1.1c2.1,1.3,2.1,1.2,0.2,2.6
		c-1.2,0.8-1.6,1.9-0.9,3.4c0.7,1.6,1.7,0.8,2.6,0.6C570.7,591.5,570.9,591.4,571.2,591.3z"/>
	<path d="M564,581.4c-0.1,0.1-0.3,0.3-0.4,0.4c-1-1.1-0.9-2.5-0.8-3.8c0.1-1.2,0.5-2.3-0.1-3.5c-0.5-0.9,0.8-1.2,0.9-2.2
		c0.2-3.3-0.4-6.2-2.5-8.8c-0.5-0.6-1.2-1.3-1.5-2.3c0.9,0.1,2-0.5,1.5,1.2c0,0,0,0.1,0.1,0.2c1.9,2.2,2.2,5.1,3.4,7.5
		c1.4,2.7,1.4,5,0.4,7.6C564.5,578.9,564.3,580.1,564,581.4z"/>
	<path d="M556.4,541.1c0.5,0.7,1.5,1.5,1.5,2.2c-0.1,5.2,2.6,10.2,2,15.4c-0.2,0-0.5,0.1-0.7,0.1c-1.1-5.8-2.2-11.7-3.3-17.5
		C556.1,541.2,556.3,541.2,556.4,541.1z"/>
</g>
<g>
	<g>
		<path d="M910.1,751c-1,0-2,0.1-3,0.1c-20.2,0-40.5,0-60.7,0c-46.1,0-92.1,0-138.2,0c-2.1,0-2.5-0.4-2.6-2.5c0-1.2,0-2.5,0-3.7
			c0-0.4,0-0.9,0.3-1.3c0.5-0.6,0.6-1.2,0.3-1.9c-0.2-0.7,0.1-1.1,0.8-1.4c1-0.3,1.5-1,1.4-2.1c0-0.9,0.3-1.4,1.3-1.2
			c0.2,0,0.5,0,0.7-0.1c2.4-0.1,2.9-0.2,2.8,2.2c0,0.3,0.1,0.6,0.3,0.9c0.2,0.2,0.4,0.5,0.8,0.5c0.4-0.1,0.4-0.5,0.4-0.8
			c0-0.1,0-0.2,0-0.4c0-2.6-0.2-2.5,2.6-2.6c1.4,0,3,0.4,4.2-0.8c0.2-0.2,0.5-0.1,0.7,0.1c0.7,0.9,1.6,0.5,2.4,0.3
			c0.7-0.2,1.4-0.5,2.1-0.5c0.8,0,1-0.8,1.6-1c0.9-0.3,0.1-1,0.3-1.5c0.2-0.6,0.1-1.3,0.2-1.9c0.3-1.7,1.1-2.6,2.7-2.9
			c0.6-0.1,1-0.2,1.1-0.9c0.1-0.4,0.4-0.6,0.8-0.7c1.2-0.1,2.3-0.7,3.5-0.2c0.6,0.3,1,0.1,0.9-0.6c-0.2-2.5,0.7-4.9,0.6-7.4
			c-0.1-1.2-0.5-2.4-0.5-3.7c0-1.5,0.3-2.9,0.7-4.3c0.6-2,0.9-4,1.1-6.1c0.3-3.3,0.3-6.6,0.1-9.9c0-0.4,0.1-0.7,0.3-1
			c0.2-0.3,0.3-0.6,0.4-0.9c0.1-0.5,0.3-1.2-0.3-1.4c-0.5-0.1-0.2,0.8-0.6,1c-0.2-0.7-0.3-1.2,0.3-1.8c0.7-0.8,0.7-2,0.5-3.1
			c-0.2-1-0.4-1.9,0.1-2.8c0,0,0.1-0.1,0-0.1c-0.4-1.8,0.5-3.4,0.8-5.1c0.1-0.8,0.2-1.7,0-2.5c-0.1-0.3,0-0.6,0.1-1
			c0.5-1.3,1.1-2.7,0.1-4.1c-0.2-0.3,0.1-0.4,0.1-0.7c0-0.4,1-3.3,1-3.6c-0.1-1.1,0.6-2.1,0.5-3.1c-0.3-2.6,0.4-5.3,0.1-7.9
			c-0.2-1.8,0.1-3.6,0.4-5.2c0.7-5.1,0.3-10.1,0.1-15.2c0-1.3,0.3-2.6-0.4-3.8c0-0.1-0.1-0.2,0-0.2c1.1-2.1,0.7-4.4,0.4-6.5
			c-0.2-1.7-0.1-3.4-0.6-5c-0.3-0.9,0.3-1.6,0.3-2.4c-0.1-1.6,0.3-3.1,0.7-4.7c0.6-2.2,1-4.6,1.6-6.8c0.7-2.7,1.4-5.5,2.2-8.2
			c0-0.2,0.2-0.3,0.1-0.5c-0.3-2,1.1-3.7,1.3-5.6c0-0.4,0.1-0.8,0.7-0.9c0.5,0,0.6,0.5,0.7,0.9c0.5,1.7,0.9,3.5,1.4,5.2
			c0.1,0.3,0.1,0.8,0.6,0.8c0.5,0,0.4-0.5,0.5-0.8c0.3-1.2,0.3-2.4,0.1-3.5c-0.1-0.5,0-1,0.2-1.5c0.9-2.4,1.5-4.9,1.5-7.6
			c0-2.2,0.4-4.4,0.8-6.5c0.2-1.4,0.3-2.8,0.5-4.2c0.2-1.9,0.5-3.8,0.7-5.7c0.2-3,0.8-5.9,1-8.9c0.2-2.8,0.6-5.6,1.1-8.4
			c0.4-2,0.7-4.1,0.6-6c-0.2-2.3,0.6-4.3,0.6-6.5c0-1.5,0.6-3.1-0.2-4.5c-0.1-0.2-0.1-0.5,0-0.7c0.5-2.4,0.8-4.9,0.8-7.4
			c0-0.6,0.3-1.3,0.6-1.8c0.4-0.7,0.3-1.3-0.1-1.9c-0.7-1.1-0.8-2.3-0.5-3.5c0.3-1.5,0.4-2.9,0.2-4.4c0-0.1,0-0.2,0-0.4
			c0-1.6,0.8-2.1,2.3-1.5c-0.8,1.4-0.9,2.8,0,4.2c0.1,0.2,0.2,0.3,0.1,0.6c-0.7,2-0.1,3.7,0.7,5.6c0.5,1.2,0.4,2.7,0.7,4
			c1,5.1,2,10.3,3,15.4c1.1,5.4,2.1,10.7,3.3,16.1c1.9,8.6,3.5,17.2,5.1,25.9c0.6,3.4,2.1,6.5,3,9.7c0.1,0.3,0.1,0.6,0.5,0.6
			c0.4,0,0.4-0.4,0.5-0.6c0.2-0.4,0.2-1,0.9-1c0.7,0,0.9,0.6,1,1.1c2,6.3,3.9,12.7,6.3,18.9c0.9,2.2,1.4,4.4,1.6,6.7
			c0.1,0.7-0.3,1.2-0.3,1.9c0.1,2.9-0.2,5.8,0.3,8.6c0.4,2.3,0.3,4.6,0.2,6.8c0,2,0.5,4,0.5,6c0,2.5,0.2,5,0.5,7.4
			c0.3,2.9,0.7,6,2,8.7c0.7,1.4,1.9,2.6,2.9,3.8c0.5,0.5,0.9,0.4,1.3-0.3c1.2-2,1.8-4.3,2.9-6.3c1.4-2.4,2.6-4.9,3.8-7.4
			c1.7-3.4,3.4-6.9,5.1-10.3c0.6-1.2,1.1-2.4,1.9-3.4c0.6-0.7,0.8-1.7,1.2-2.6c1.4-3.8,3.6-7.2,4.9-11c0.3-0.8,0.5-1.7,0.8-2.5
			c0.3-0.8-0.2-1.7-1-2.1c-0.9-0.6-0.1-1.1,0-1.6c0.1-0.4,0.6-1.2,1.1-1c0.6,0.2,1.3,0.5,1.6,1.2c0.1,0.3-0.2,0.6-0.4,0.8
			c-0.8,1.2-0.9,2.3,0,3.5c0.2,0.3,0.4,0.7,0.6,1c1.4,3.8,4.2,6.2,7.7,7.8c7.6,3.5,15.2,6.9,22.8,10.4c5.1,2.3,10.1,4.6,15.2,6.9
			c7.6,3.5,15.2,7,22.7,10.5c0.9,0.4,1.8,0.5,2.8,0.3c6.4-1,12.9-2,19.3-3C910.1,686.5,910.1,718.7,910.1,751z M801.4,728.8
			c-0.5-11-1-21.9-1.5-32.9c0,3.5,0.1,7,0.3,10.5c0.2,4.5,0.4,9.1,0.6,13.6c0,0.4,0,0.7-0.3,1c-0.8,0.7-0.9,2.6-0.2,3.5
			c-0.3-0.6-0.2-1.3-0.2-2c0-0.3-0.1-0.8,0.3-0.8c0.5,0,0.4,0.5,0.4,0.8C800.9,724.7,801.4,726.7,801.4,728.8z"/>
	</g>
</g>
<path d="M161,770c-144.8,0.1-289.5,0.2-434.3,0.2c-45.1,0-90.3-0.1-135.4-0.1c-127.9,0-255.9,0-383.8,0c-2.2,0-4.3,0-6.5-0.1
	c0-26.7,0-53.3,0-80c1.5,0,3,0,5,0c0.7-8.2,1.6-16.3,1.9-24.5c0.2-3.7,1.8-4.7,4.7-6.8c7.8-5.5,15.8-1.5,23.6-2.2
	c1.1-0.1,2.3,1.5,3.5,2.3c1.3,0.7,2.6,1.7,4,1.9c3.6,0.5,7.2,0.6,10.2,0.8c-0.6,9.9-1.1,19-1.6,28c0.4,0,0.8,0.1,1.3,0.1
	c0.4-3.7,0.7-7.3,1.1-11.4c9.7,0,19.1,0,28.5,0c-0.2-0.5-0.4-1-0.5-1.6c1.9-1.1,3.7-2.2,5.6-3.3c0.3-0.2,0.9-0.1,0.9-0.2
	c2.2-7.2,8.7-3.7,13.1-4.9c4.7-1.2,9.9-1.2,14.7-0.9c5.1,0.3,10.2,1.7,15.2,2.6c2.6,0.5,6.1-0.4,5.7,4.2c0,0.4,1.8,1.3,2.7,1.2
	c4.9-0.6,9.8-1.5,14.9-2.3c0.8,2.5,1.3,4.2,1.8,5.8c0.4,0.1,0.8,0.1,1.2,0.2c0.4-1.3,1.1-2.6,1.2-3.9c0.5-7.8,0.8-15.6,1.4-23.4
	c0.1-1.6,1.6-3.1,2.3-4.8c0.6-1.3,1.2-2.7,1.3-4c0.3-4.7,0.1-9.4,0.6-14c0.4-4-1.4-8.8,3.4-11.7c0.5-0.3,0.4-1.9,0.4-2.9
	c0.3-7.3,0.3-14.7,1.1-22c0.4-4,1.5-8.2,3.5-11.6c0.8-1.4,3.6-3.7,7.3-2.5c4,1.3,8.7,0.6,13,1c4.1,0.4,8.2,1.2,12,1.7
	c5.5,10.7,2.1,21.7,2.7,32.4c0.2,2.6,1.6,5.2,2,7.8c0.4,2.7,0.6,5.5,0.5,8.2c-0.1,5.3-0.5,10.6-0.7,15.9c0.5,0.2,1.1,0.3,1.6,0.5
	c0.6-1.3,1.5-2.6,1.6-3.9c0.4-5.8,0.2-11.7,0.8-17.5c0.3-3.1-1.4-7.1,3.2-8.8c0.4-0.2,0.4-1.8,0.4-2.8c0.3-4.8,0.5-9.7,0.7-14.5
	c0.3-7.7-0.8-15.8,5.4-23.4c9.5-1.3,20.3-1.1,31,1.2c0.9,0.2,2.1,0.9,2.3,1.6c1,3.9,2.4,7.8,2.4,11.8c0.1,8.3-0.6,16.6-0.8,25
	c0,1.6-1.3,4.2,2.2,4.2c0.2,0,0.7,2.3,0.7,3.6c-0.1,6.3-0.5,12.7-0.6,19c0,2.6-2,6,2.5,7.4c0.5,0.1,0.4,2.5,0.4,3.7
	c-0.5,15.2-1.1,30.3-1.6,45.5c-0.1,2.8,0,5.6,0,7.9c7.1,0.8,13.7,1.6,21.1,2.5c0-6.4,0-13.8,0-21.3c0-4.2,1.9-6.5,6.2-7.1
	c1.1-0.2,2.4-1.9,2.8-3.2c0.6-2.3,0.6-4.9,0.8-7.6c3.7,0.5,7.9-2.3,9.4,3.2c0.1,0.3,0.9,0.6,1.3,0.5c7.2-1.6,7.1,3.4,6.8,8
	c3.8,0.8,7.1,1.5,10.9,2.2c0.2-3,0.5-7,0.7-11.1c0.4-10.6,0.8-21.3,1.2-32c0.2-6.3,1.5-7.7,7.9-8c3.2-0.2,6.4-0.4,9.6-0.1
	c5.8,0.7,11.5,1.8,16.2,2.5c0,16.1,0.1,31.5,0,46.9c0,4.6,2.6,6.8,5.5,9.9c4.1,4.5,7.9,4.3,13.2,4.3c5.2-0.1,10.4,3,15.6,4.4
	c1.7,0.5,3.7-0.3,5.4,0.2c4.7,1.4,10,0.4,14.2,4.7c3.3,3.3,8.3,0.5,8.8-4.3c0.2-1.6,0.3-3.2,0.5-5.1c2.2,0.2,4,0.4,5.7,0.6
	c2.4-4.8,6.9-4.9,12.5-0.6c0.7,0.6,1.5,2,2,1.9c6.1-1,8,3.3,9.3,7.8c5-0.8,10.2-5.8,13.1,2.4c3.5-1.8,1.1-8.1,6.8-7.5
	c3.4,0.4,6.9,0.1,10.8,0.1c0.2-3.5,0.3-6.4,0.5-10.6c2.6,0.9,4.6,1.7,6.8,2.3c1.7,0.5,3.6,0.7,5.4,0.8c5,0.2,10,0.3,15,0.3
	c4,0,7.6,0.3,6.7,5.4c9.9,2.2,19.5,4.4,29.6,6.7c0,7.8,0,15.3,0,22.9c4.1,0.5,7.7,1,12.1,1.5c0-4,0-7.4,0-10.8
	c0.1-7.7,3.1-10.6,10.9-10c1.9,0.1,3.7,1.5,5.6,1.7c3.7,0.3,7.6,0.6,11.3,0.2c2.8-0.3,5.4-2,7,1.9c0.3,0.8,2,1.4,3.1,1.6
	c8.8,0.9,17.6,1.7,26.4,2.6c0.6,1.7,1.2,3.2,1.7,4.7c0.5,0,1-0.1,1.4-0.1c0.2-4.1,0.5-8.2,0.7-12.2c9.4-3.2,18.5-4.4,28-1.5
	c1.4,0.4,3.6-1.4,5.1-2.5c2-1.4,3.7-3.3,5.9-5.2c11.3,10.8,18.5,22.8,15.6,40c1.5-1.3,1.9-2.1,2.4-2.1c7.3,0.4,6.1-4.8,6.1-9.1
	c0.1-3.5,0-7,0-9.4c2.6-1.7,4.1-2.9,5.8-3.7c1.7-0.8,3.5-1.3,5.8-2.2c0.3-6.5,0.6-13.5,0.9-20.9c5.4-0.5,10.6-1.4,15.8-1.4
	c4.6,0,9.1,1.1,13.7,1.6c1.3-4.3,2.3-7.7,3.4-11.5c3-0.2,5-1.5,5.3-5.3c0-0.9,3.3-2.5,5-2.4c6.3,0.5,12.5,1.5,17.8,2.2
	c2.7,3.4,5.2,6.3,7.4,9.4c0.6,0.9,0.6,2.3,0.6,3.5c0,16.3,0,32.6,0,49.6c2.4,0.9,5.6,2.7,9,3c5.5,0.6,7.7-1.1,7.9-6.7
	c0.1-4.6,1.7-6.7,6.6-6.3c0.4-11.1,0.9-21.9,1.3-32.7c0.2-6.5,0.3-13,0.4-19.5c0.2-9.4,0.2-9.4,9.6-12.3c0.2-2.5,0.4-5.1,0.7-8.3
	c10.7-1.4,21.3-2.8,32.5-4.3c0.3-3.7,0.6-8,1-13.6c11.5,0,22.7,0,34,0c4.7,0,9.3,0.1,14-0.1c4.1-0.2,7.9,0,12.1-2.6
	c3.5-2.1,9.3-0.4,14.9-0.4c0,1.7,0,3.4,0,5.2c-0.2,24.8-0.4,49.7-0.4,74.5c0,2.3,1.3,5.6,3,6.5c2.9,1.6,2.3,3.7,2.3,5.8
	c0.1,7.4,0,14.9,0,22.3c8.4,1.3,9.7,0.2,9.8-7.5c0.1-4,0-8,0-12.3c8.1,0,15.5,0,23.4,0c0.3,2.2,0.6,4.4,1,7c2.7,0.1,5.3,0.3,8,0.4
	C161,747.3,161,758.7,161,770z"/>
<path d="M2215,770c-144.8,0.1-289.5,0.2-434.3,0.2c-45.1,0-90.3-0.1-135.4-0.1c-127.9,0-255.9,0-383.8,0c-2.2,0-4.3,0-6.5-0.1
	c0-26.7,0-53.3,0-80c1.5,0,3,0,5,0c0.7-8.2,1.6-16.3,1.9-24.5c0.2-3.7,1.8-4.7,4.7-6.8c7.8-5.5,15.8-1.5,23.6-2.2
	c1.1-0.1,2.3,1.5,3.5,2.3c1.3,0.7,2.6,1.7,4,1.9c3.6,0.5,7.2,0.6,10.2,0.8c-0.6,9.9-1.1,19-1.6,28c0.4,0,0.8,0.1,1.3,0.1
	c0.4-3.7,0.7-7.3,1.1-11.4c9.7,0,19.1,0,28.5,0c-0.2-0.5-0.4-1-0.5-1.6c1.9-1.1,3.7-2.2,5.6-3.3c0.3-0.2,0.9-0.1,0.9-0.2
	c2.2-7.2,8.7-3.7,13.1-4.9c4.7-1.2,9.9-1.2,14.7-0.9c5.1,0.3,10.2,1.7,15.2,2.6c2.6,0.5,6.1-0.4,5.7,4.2c0,0.4,1.8,1.3,2.7,1.2
	c4.9-0.6,9.8-1.5,14.9-2.3c0.8,2.5,1.3,4.2,1.8,5.8c0.4,0.1,0.8,0.1,1.2,0.2c0.4-1.3,1.1-2.6,1.2-3.9c0.5-7.8,0.8-15.6,1.4-23.4
	c0.1-1.6,1.6-3.1,2.3-4.8c0.6-1.3,1.2-2.7,1.3-4c0.3-4.7,0.1-9.4,0.6-14c0.4-4-1.4-8.8,3.4-11.7c0.5-0.3,0.4-1.9,0.4-2.9
	c0.3-7.3,0.3-14.7,1.1-22c0.4-4,1.5-8.2,3.5-11.6c0.8-1.4,3.6-3.7,7.3-2.5c4,1.3,8.7,0.6,13,1c4.1,0.4,8.2,1.2,12,1.7
	c5.5,10.7,2.1,21.7,2.7,32.4c0.2,2.6,1.6,5.2,2,7.8c0.4,2.7,0.6,5.5,0.5,8.2c-0.1,5.3-0.5,10.6-0.7,15.9c0.5,0.2,1.1,0.3,1.6,0.5
	c0.6-1.3,1.5-2.6,1.6-3.9c0.4-5.8,0.2-11.7,0.8-17.5c0.3-3.1-1.4-7.1,3.2-8.8c0.4-0.2,0.4-1.8,0.4-2.8c0.3-4.8,0.5-9.7,0.7-14.5
	c0.3-7.7-0.8-15.8,5.4-23.4c9.5-1.3,20.3-1.1,31,1.2c0.9,0.2,2.1,0.9,2.3,1.6c1,3.9,2.4,7.8,2.4,11.8c0.1,8.3-0.6,16.6-0.8,25
	c0,1.6-1.3,4.2,2.2,4.2c0.2,0,0.7,2.3,0.7,3.6c-0.1,6.3-0.5,12.7-0.6,19c0,2.6-2,6,2.5,7.4c0.5,0.1,0.4,2.5,0.4,3.7
	c-0.5,15.2-1.1,30.3-1.6,45.5c-0.1,2.8,0,5.6,0,7.9c7.1,0.8,13.7,1.6,21.1,2.5c0-6.4,0-13.8,0-21.3c0-4.2,1.9-6.5,6.2-7.1
	c1.1-0.2,2.4-1.9,2.8-3.2c0.6-2.3,0.6-4.9,0.8-7.6c3.7,0.5,7.9-2.3,9.4,3.2c0.1,0.3,0.9,0.6,1.3,0.5c7.2-1.6,7.1,3.4,6.8,8
	c3.8,0.8,7.1,1.5,10.9,2.2c0.2-3,0.5-7,0.7-11.1c0.4-10.6,0.8-21.3,1.2-32c0.2-6.3,1.5-7.7,7.9-8c3.2-0.2,6.4-0.4,9.6-0.1
	c5.8,0.7,11.5,1.8,16.2,2.5c0,16.1,0.1,31.5,0,46.9c0,4.6,2.6,6.8,5.5,9.9c4.1,4.5,7.9,4.3,13.2,4.3c5.2-0.1,10.4,3,15.6,4.4
	c1.7,0.5,3.7-0.3,5.4,0.2c4.7,1.4,10,0.4,14.2,4.7c3.3,3.3,8.3,0.5,8.8-4.3c0.2-1.6,0.3-3.2,0.5-5.1c2.2,0.2,4,0.4,5.7,0.6
	c2.4-4.8,6.9-4.9,12.5-0.6c0.7,0.6,1.5,2,2,1.9c6.1-1,8,3.3,9.3,7.8c5-0.8,10.2-5.8,13.1,2.4c3.5-1.8,1.1-8.1,6.8-7.5
	c3.4,0.4,6.9,0.1,10.8,0.1c0.2-3.5,0.3-6.4,0.5-10.6c2.6,0.9,4.6,1.7,6.8,2.3c1.7,0.5,3.6,0.7,5.4,0.8c5,0.2,10,0.3,15,0.3
	c4,0,7.6,0.3,6.7,5.4c9.9,2.2,19.5,4.4,29.6,6.7c0,7.8,0,15.3,0,22.9c4.1,0.5,7.7,1,12.1,1.5c0-4,0-7.4,0-10.8
	c0.1-7.7,3.1-10.6,10.9-10c1.9,0.1,3.7,1.5,5.6,1.7c3.7,0.3,7.6,0.6,11.3,0.2c2.8-0.3,5.4-2,7,1.9c0.3,0.8,2,1.4,3.1,1.6
	c8.8,0.9,17.6,1.7,26.4,2.6c0.6,1.7,1.2,3.2,1.7,4.7c0.5,0,1-0.1,1.4-0.1c0.2-4.1,0.5-8.2,0.7-12.2c9.4-3.2,18.5-4.4,28-1.5
	c1.4,0.4,3.6-1.4,5.1-2.5c2-1.4,3.7-3.3,5.9-5.2c11.3,10.8,18.5,22.8,15.6,40c1.5-1.3,1.9-2.1,2.4-2.1c7.3,0.4,6.1-4.8,6.1-9.1
	c0.1-3.5,0-7,0-9.4c2.6-1.7,4.1-2.9,5.8-3.7c1.7-0.8,3.5-1.3,5.8-2.2c0.3-6.5,0.6-13.5,0.9-20.9c5.4-0.5,10.6-1.4,15.8-1.4
	c4.6,0,9.1,1.1,13.7,1.6c1.3-4.3,2.3-7.7,3.4-11.5c3-0.2,5-1.5,5.2-5.3c0-0.9,3.3-2.5,5-2.4c6.3,0.5,12.5,1.5,17.8,2.2
	c2.7,3.4,5.2,6.3,7.4,9.4c0.6,0.9,0.6,2.3,0.6,3.5c0,16.3,0,32.6,0,49.6c2.4,0.9,5.6,2.7,9,3c5.5,0.6,7.7-1.1,7.9-6.7
	c0.1-4.6,1.7-6.7,6.6-6.3c0.4-11.1,0.9-21.9,1.3-32.7c0.2-6.5,0.3-13,0.4-19.5c0.2-9.4,0.2-9.4,9.6-12.3c0.2-2.5,0.4-5.1,0.7-8.3
	c10.7-1.4,21.3-2.8,32.5-4.3c0.3-3.7,0.6-8,1-13.6c11.5,0,22.7,0,34,0c4.7,0,9.3,0.1,14-0.1c4.1-0.2,7.9,0,12.1-2.6
	c3.5-2.1,9.3-0.4,14.9-0.4c0,1.7,0,3.4,0,5.2c-0.2,24.8-0.4,49.7-0.4,74.5c0,2.3,1.3,5.6,3,6.5c2.9,1.6,2.3,3.7,2.3,5.8
	c0.1,7.4,0,14.9,0,22.3c8.4,1.3,9.7,0.2,9.8-7.5c0.1-4,0-8,0-12.3c8.1,0,15.5,0,23.4,0c0.3,2.2,0.6,4.4,1,7c2.7,0.1,5.3,0.3,8,0.4
	C2215,747.3,2215,758.7,2215,770z"/>
</svg>
