<?xml version="1.0" encoding="utf-8"?>
<!-- Generator: Adobe Illustrator 21.1.0, SVG Export Plug-In . SVG Version: 6.00 Build 0)  -->
<svg version="1.1" id="Layer_1" xmlns="http://www.w3.org/2000/svg" xmlns:xlink="http://www.w3.org/1999/xlink" x="0px" y="0px"
	 viewBox="0 0 1366 768" style="enable-background:new 0 0 1366 768;" xml:space="preserve">
<style type="text/css">
	.st0{fill:url(#SVGID_1_);}
	.st1{fill:url(#SVGID_2_);}
	.st2{fill:url(#SVGID_3_);}
	.st3{fill:url(#SVGID_4_);}
	.st4{fill:url(#SVGID_5_);}
	.st5{fill:url(#SVGID_6_);}
	.st6{fill:url(#SVGID_7_);}
	.st7{fill:url(#SVGID_8_);}
	.st8{fill:url(#SVGID_9_);}
	.st9{fill:url(#SVGID_10_);}
	.st10{fill:url(#SVGID_11_);}
	.st11{fill:url(#SVGID_12_);}
	.st12{fill:url(#SVGID_13_);}
	.st13{fill:url(#SVGID_14_);}
	.st14{fill:url(#SVGID_15_);}
	.st15{fill:url(#SVGID_16_);}
</style>
<radialGradient id="SVGID_1_" cx="442.8369" cy="223.5806" r="100.008" gradientUnits="userSpaceOnUse">
	<stop  offset="0" style="stop-color:#FFFFFF"/>
	<stop  offset="0.629" style="stop-color:#E6E7E8"/>
	<stop  offset="0.8322" style="stop-color:#D7D9DA"/>
	<stop  offset="1" style="stop-color:#D1D3D4"/>
</radialGradient>
<path class="st0" d="M390.2,181.4c0,0,2-22.6,26.7-23.4c22.3-0.7,27.7,14.4,27.7,14.4s16.2-7.9,27.7,2.5
	c11.5,10.4,8.3,20.9,8.3,20.9s16.6-2.9,25.2,8.6c8.6,11.5-1.1,31.7-14.4,31.3c0,0-5.4,11.5-21.3,6.1c0,0-6.8,18-28.8,14.8
	c-22-3.2-22-14.4-22-14.4s-7.9,12.2-22.3,9.7c-14.4-2.5-14.8-15.1-14.8-15.1s-22.3,6.8-32.1-10.8c-9-16.3,4.7-36.4,19.1-33.5
	C369.3,192.6,372.2,177.1,390.2,181.4z"/>
<radialGradient id="SVGID_2_" cx="714.9924" cy="494.1637" r="60.3716" gradientUnits="userSpaceOnUse">
	<stop  offset="0" style="stop-color:#FFFFFF"/>
	<stop  offset="0.629" style="stop-color:#E6E7E8"/>
	<stop  offset="0.8322" style="stop-color:#D7D9DA"/>
	<stop  offset="1" style="stop-color:#D1D3D4"/>
</radialGradient>
<path class="st1" d="M683.2,468.7c0,0,1.2-13.7,16.1-14.1c13.5-0.4,16.7,8.7,16.7,8.7s9.8-4.8,16.7,1.5c7,6.3,5,12.6,5,12.6
	s10-1.7,15.2,5.2c5.2,7-0.7,19.1-8.7,18.9c0,0-3.3,7-12.8,3.7c0,0-4.1,10.9-17.4,8.9c-13.3-2-13.3-8.7-13.3-8.7s-4.8,7.4-13.5,5.9
	c-8.7-1.5-8.9-9.1-8.9-9.1s-13.5,4.1-19.4-6.5c-5.4-9.8,2.8-22,11.5-20.2C670.6,475.5,672.3,466.1,683.2,468.7z"/>
<radialGradient id="SVGID_3_" cx="579.6716" cy="119.1913" r="17.0945" gradientUnits="userSpaceOnUse">
	<stop  offset="0" style="stop-color:#FFFFFF"/>
	<stop  offset="0.629" style="stop-color:#E6E7E8"/>
	<stop  offset="0.8322" style="stop-color:#D7D9DA"/>
	<stop  offset="1" style="stop-color:#D1D3D4"/>
</radialGradient>
<path class="st2" d="M570.7,112c0,0,0.3-3.9,4.6-4c3.8-0.1,4.7,2.5,4.7,2.5s2.8-1.4,4.7,0.4c2,1.8,1.4,3.6,1.4,3.6s2.8-0.5,4.3,1.5
	c1.5,2-0.2,5.4-2.5,5.4c0,0-0.9,2-3.6,1c0,0-1.2,3.1-4.9,2.5c-3.8-0.6-3.8-2.5-3.8-2.5s-1.4,2.1-3.8,1.7c-2.5-0.4-2.5-2.6-2.5-2.6
	s-3.8,1.2-5.5-1.8c-1.5-2.8,0.8-6.2,3.3-5.7C567.1,113.9,567.6,111.2,570.7,112z"/>
<radialGradient id="SVGID_4_" cx="149.5396" cy="584.3524" r="12.7668" gradientUnits="userSpaceOnUse">
	<stop  offset="0" style="stop-color:#FFFFFF"/>
	<stop  offset="0.629" style="stop-color:#E6E7E8"/>
	<stop  offset="0.8322" style="stop-color:#D7D9DA"/>
	<stop  offset="1" style="stop-color:#D1D3D4"/>
</radialGradient>
<path class="st3" d="M142.8,579c0,0,0.3-2.9,3.4-3c2.9-0.1,3.5,1.8,3.5,1.8s2.1-1,3.5,0.3c1.5,1.3,1.1,2.7,1.1,2.7s2.1-0.4,3.2,1.1
	c1.1,1.5-0.1,4-1.8,4c0,0-0.7,1.5-2.7,0.8c0,0-0.9,2.3-3.7,1.9c-2.8-0.4-2.8-1.8-2.8-1.8s-1,1.6-2.9,1.2c-1.8-0.3-1.9-1.9-1.9-1.9
	s-2.9,0.9-4.1-1.4c-1.1-2.1,0.6-4.6,2.4-4.3C140.2,580.4,140.5,578.4,142.8,579z"/>
<radialGradient id="SVGID_5_" cx="217.1164" cy="163.5874" r="26.9864" gradientUnits="userSpaceOnUse">
	<stop  offset="0" style="stop-color:#FFFFFF"/>
	<stop  offset="0.629" style="stop-color:#E6E7E8"/>
	<stop  offset="0.8322" style="stop-color:#D7D9DA"/>
	<stop  offset="1" style="stop-color:#D1D3D4"/>
</radialGradient>
<path class="st4" d="M202.9,152.2c0,0,0.6-6.1,7.2-6.3c6-0.2,7.5,3.9,7.5,3.9s4.4-2.1,7.5,0.7c3.1,2.8,2.2,5.6,2.2,5.6
	s4.5-0.8,6.8,2.3c2.3,3.1-0.3,8.6-3.9,8.5c0,0-1.5,3.1-5.7,1.7c0,0-1.8,4.9-7.8,4c-5.9-0.9-5.9-3.9-5.9-3.9s-2.1,3.3-6,2.6
	c-3.9-0.7-4-4.1-4-4.1s-6,1.8-8.7-2.9c-2.4-4.4,1.3-9.8,5.2-9C197.3,155.2,198.1,151,202.9,152.2z"/>
<radialGradient id="SVGID_6_" cx="1041.8369" cy="266.5806" r="100.008" gradientUnits="userSpaceOnUse">
	<stop  offset="0" style="stop-color:#FFFFFF"/>
	<stop  offset="0.629" style="stop-color:#E6E7E8"/>
	<stop  offset="0.8322" style="stop-color:#D7D9DA"/>
	<stop  offset="1" style="stop-color:#D1D3D4"/>
</radialGradient>
<path class="st5" d="M989.2,224.4c0,0,2-22.6,26.7-23.4c22.3-0.7,27.7,14.4,27.7,14.4s16.2-7.9,27.7,2.5
	c11.5,10.4,8.3,20.9,8.3,20.9s16.6-2.9,25.2,8.6c8.6,11.5-1.1,31.7-14.4,31.3c0,0-5.4,11.5-21.3,6.1c0,0-6.8,18-28.8,14.8
	c-22-3.2-22-14.4-22-14.4s-7.9,12.2-22.3,9.7c-14.4-2.5-14.8-15.1-14.8-15.1s-22.3,6.8-32.1-10.8c-9-16.3,4.7-36.4,19.1-33.5
	C968.3,235.6,971.2,220.1,989.2,224.4z"/>
<radialGradient id="SVGID_7_" cx="933.9573" cy="167.6856" r="49.8615" gradientUnits="userSpaceOnUse">
	<stop  offset="0" style="stop-color:#FFFFFF"/>
	<stop  offset="0.629" style="stop-color:#E6E7E8"/>
	<stop  offset="0.8322" style="stop-color:#D7D9DA"/>
	<stop  offset="1" style="stop-color:#D1D3D4"/>
</radialGradient>
<path class="st6" d="M907.7,146.7c0,0,1-11.3,13.3-11.7c11.1-0.4,13.8,7.2,13.8,7.2s8.1-4,13.8,1.3c5.7,5.2,4.1,10.4,4.1,10.4
	s8.3-1.4,12.6,4.3c4.3,5.7-0.5,15.8-7.2,15.6c0,0-2.7,5.7-10.6,3.1c0,0-3.4,9-14.4,7.4c-11-1.6-11-7.2-11-7.2s-4,6.1-11.1,4.8
	c-7.2-1.3-7.4-7.5-7.4-7.5s-11.1,3.4-16-5.4c-4.5-8.1,2.3-18.1,9.5-16.7C897.3,152.2,898.7,144.5,907.7,146.7z"/>
<radialGradient id="SVGID_8_" cx="1211.6716" cy="148.1913" r="17.0945" gradientUnits="userSpaceOnUse">
	<stop  offset="0" style="stop-color:#FFFFFF"/>
	<stop  offset="0.629" style="stop-color:#E6E7E8"/>
	<stop  offset="0.8322" style="stop-color:#D7D9DA"/>
	<stop  offset="1" style="stop-color:#D1D3D4"/>
</radialGradient>
<path class="st7" d="M1202.7,141c0,0,0.3-3.9,4.6-4c3.8-0.1,4.7,2.5,4.7,2.5s2.8-1.4,4.7,0.4c2,1.8,1.4,3.6,1.4,3.6s2.8-0.5,4.3,1.5
	c1.5,2-0.2,5.4-2.5,5.4c0,0-0.9,2-3.6,1c0,0-1.2,3.1-4.9,2.5c-3.8-0.6-3.8-2.5-3.8-2.5s-1.4,2.1-3.8,1.7c-2.5-0.4-2.5-2.6-2.5-2.6
	s-3.8,1.2-5.5-1.8c-1.5-2.8,0.8-6.2,3.3-5.7C1199.1,142.9,1199.6,140.2,1202.7,141z"/>
<radialGradient id="SVGID_9_" cx="286.8369" cy="555.5806" r="100.008" gradientUnits="userSpaceOnUse">
	<stop  offset="0" style="stop-color:#FFFFFF"/>
	<stop  offset="0.629" style="stop-color:#E6E7E8"/>
	<stop  offset="0.8322" style="stop-color:#D7D9DA"/>
	<stop  offset="1" style="stop-color:#D1D3D4"/>
</radialGradient>
<path class="st8" d="M234.2,513.4c0,0,2-22.6,26.7-23.4c22.3-0.7,27.7,14.4,27.7,14.4s16.2-7.9,27.7,2.5
	c11.5,10.4,8.3,20.9,8.3,20.9s16.6-2.9,25.2,8.6c8.6,11.5-1.1,31.7-14.4,31.3c0,0-5.4,11.5-21.3,6.1c0,0-6.8,18-28.8,14.8
	c-22-3.2-22-14.4-22-14.4s-7.9,12.2-22.3,9.7c-14.4-2.5-14.8-15.1-14.8-15.1s-22.3,6.8-32.1-10.8c-9-16.3,4.7-36.4,19.1-33.5
	C213.3,524.6,216.2,509.1,234.2,513.4z"/>
<radialGradient id="SVGID_10_" cx="348.9187" cy="566.3387" r="67.6259" gradientUnits="userSpaceOnUse">
	<stop  offset="0" style="stop-color:#FFFFFF"/>
	<stop  offset="0.629" style="stop-color:#E6E7E8"/>
	<stop  offset="0.8322" style="stop-color:#D7D9DA"/>
	<stop  offset="1" style="stop-color:#D1D3D4"/>
</radialGradient>
<path class="st9" d="M313.3,537.8c0,0,1.4-15.3,18-15.8c15.1-0.5,18.8,9.7,18.8,9.7s11-5.4,18.8,1.7c7.8,7.1,5.6,14.1,5.6,14.1
	s11.2-1.9,17.1,5.8c5.8,7.8-0.7,21.4-9.7,21.2c0,0-3.7,7.8-14.4,4.1c0,0-4.6,12.2-19.5,10c-14.9-2.2-14.9-9.7-14.9-9.7
	s-5.4,8.3-15.1,6.6c-9.7-1.7-10-10.2-10-10.2s-15.1,4.6-21.7-7.3c-6.1-11,3.2-24.6,12.9-22.7C299.2,545.4,301.1,534.9,313.3,537.8z"
	/>
<radialGradient id="SVGID_11_" cx="519.1164" cy="494.5874" r="26.9864" gradientUnits="userSpaceOnUse">
	<stop  offset="0" style="stop-color:#FFFFFF"/>
	<stop  offset="0.629" style="stop-color:#E6E7E8"/>
	<stop  offset="0.8322" style="stop-color:#D7D9DA"/>
	<stop  offset="1" style="stop-color:#D1D3D4"/>
</radialGradient>
<path class="st10" d="M504.9,483.2c0,0,0.6-6.1,7.2-6.3c6-0.2,7.5,3.9,7.5,3.9s4.4-2.1,7.5,0.7c3.1,2.8,2.2,5.6,2.2,5.6
	s4.5-0.8,6.8,2.3c2.3,3.1-0.3,8.6-3.9,8.5c0,0-1.5,3.1-5.7,1.7c0,0-1.8,4.9-7.8,4c-5.9-0.9-5.9-3.9-5.9-3.9s-2.1,3.3-6,2.6
	c-3.9-0.7-4-4.1-4-4.1s-6,1.8-8.7-2.9c-2.4-4.4,1.3-9.8,5.2-9C499.3,486.2,500.1,482,504.9,483.2z"/>
<radialGradient id="SVGID_12_" cx="98.1164" cy="444.5874" r="26.9864" gradientUnits="userSpaceOnUse">
	<stop  offset="0" style="stop-color:#FFFFFF"/>
	<stop  offset="0.629" style="stop-color:#E6E7E8"/>
	<stop  offset="0.8322" style="stop-color:#D7D9DA"/>
	<stop  offset="1" style="stop-color:#D1D3D4"/>
</radialGradient>
<path class="st11" d="M83.9,433.2c0,0,0.6-6.1,7.2-6.3c6-0.2,7.5,3.9,7.5,3.9s4.4-2.1,7.5,0.7c3.1,2.8,2.2,5.6,2.2,5.6
	s4.5-0.8,6.8,2.3c2.3,3.1-0.3,8.6-3.9,8.5c0,0-1.5,3.1-5.7,1.7c0,0-1.8,4.9-7.8,4c-5.9-0.9-5.9-3.9-5.9-3.9s-2.1,3.3-6,2.6
	c-3.9-0.7-4-4.1-4-4.1s-6,1.8-8.7-2.9c-2.4-4.4,1.3-9.8,5.2-9C78.3,436.2,79.1,432,83.9,433.2z"/>
<radialGradient id="SVGID_13_" cx="971.1164" cy="641.5874" r="26.9864" gradientUnits="userSpaceOnUse">
	<stop  offset="0" style="stop-color:#FFFFFF"/>
	<stop  offset="0.629" style="stop-color:#E6E7E8"/>
	<stop  offset="0.8322" style="stop-color:#D7D9DA"/>
	<stop  offset="1" style="stop-color:#D1D3D4"/>
</radialGradient>
<path class="st12" d="M956.9,630.2c0,0,0.6-6.1,7.2-6.3c6-0.2,7.5,3.9,7.5,3.9s4.4-2.1,7.5,0.7c3.1,2.8,2.2,5.6,2.2,5.6
	s4.5-0.8,6.8,2.3c2.3,3.1-0.3,8.6-3.9,8.5c0,0-1.5,3.1-5.7,1.7c0,0-1.8,4.9-7.8,4c-5.9-0.9-5.9-3.9-5.9-3.9s-2.1,3.3-6,2.6
	c-3.9-0.7-4-4.1-4-4.1s-6,1.8-8.7-2.9c-2.4-4.4,1.3-9.8,5.2-9C951.3,633.2,952.1,629,956.9,630.2z"/>
<radialGradient id="SVGID_14_" cx="95.5396" cy="192.3524" r="12.7668" gradientUnits="userSpaceOnUse">
	<stop  offset="0" style="stop-color:#FFFFFF"/>
	<stop  offset="0.629" style="stop-color:#E6E7E8"/>
	<stop  offset="0.8322" style="stop-color:#D7D9DA"/>
	<stop  offset="1" style="stop-color:#D1D3D4"/>
</radialGradient>
<path class="st13" d="M88.8,187c0,0,0.3-2.9,3.4-3c2.9-0.1,3.5,1.8,3.5,1.8s2.1-1,3.5,0.3c1.5,1.3,1.1,2.7,1.1,2.7s2.1-0.4,3.2,1.1
	c1.1,1.5-0.1,4-1.8,4c0,0-0.7,1.5-2.7,0.8c0,0-0.9,2.3-3.7,1.9c-2.8-0.4-2.8-1.8-2.8-1.8s-1,1.6-2.9,1.2c-1.8-0.3-1.9-1.9-1.9-1.9
	s-2.9,0.9-4.1-1.4c-1.1-2.1,0.6-4.6,2.4-4.3C86.2,188.4,86.5,186.4,88.8,187z"/>
<radialGradient id="SVGID_15_" cx="975.9924" cy="310.1637" r="60.3716" gradientUnits="userSpaceOnUse">
	<stop  offset="0" style="stop-color:#FFFFFF"/>
	<stop  offset="0.629" style="stop-color:#E6E7E8"/>
	<stop  offset="0.8322" style="stop-color:#D7D9DA"/>
	<stop  offset="1" style="stop-color:#D1D3D4"/>
</radialGradient>
<path class="st14" d="M944.2,284.7c0,0,1.2-13.7,16.1-14.1c13.5-0.4,16.7,8.7,16.7,8.7s9.8-4.8,16.7,1.5c7,6.3,5,12.6,5,12.6
	s10-1.7,15.2,5.2c5.2,7-0.7,19.1-8.7,18.9c0,0-3.3,7-12.8,3.7c0,0-4.1,10.9-17.4,8.9c-13.3-2-13.3-8.7-13.3-8.7s-4.8,7.4-13.5,5.9
	c-8.7-1.5-8.9-9.1-8.9-9.1s-13.5,4.1-19.4-6.5c-5.4-9.8,2.8-22,11.5-20.2C931.6,291.5,933.3,282.1,944.2,284.7z"/>
<radialGradient id="SVGID_16_" cx="975.6231" cy="650.1263" r="20.1857" gradientUnits="userSpaceOnUse">
	<stop  offset="0" style="stop-color:#FFFFFF"/>
	<stop  offset="0.629" style="stop-color:#E6E7E8"/>
	<stop  offset="0.8322" style="stop-color:#D7D9DA"/>
	<stop  offset="1" style="stop-color:#D1D3D4"/>
</radialGradient>
<path class="st15" d="M965,641.6c0,0,0.4-4.6,5.4-4.7c4.5-0.1,5.6,2.9,5.6,2.9s3.3-1.6,5.6,0.5c2.3,2.1,1.7,4.2,1.7,4.2
	s3.3-0.6,5.1,1.7c1.7,2.3-0.2,6.4-2.9,6.3c0,0-1.1,2.3-4.3,1.2c0,0-1.4,3.6-5.8,3c-4.4-0.7-4.4-2.9-4.4-2.9s-1.6,2.5-4.5,2
	c-2.9-0.5-3-3.1-3-3.1s-4.5,1.4-6.5-2.2c-1.8-3.3,0.9-7.3,3.9-6.8C960.8,643.9,961.4,640.7,965,641.6z"/>
</svg>
