<?xml version="1.0" encoding="UTF-8" standalone="no"?>
<!DOCTYPE svg PUBLIC "-//W3C//DTD SVG 1.1//EN" "http://www.w3.org/Graphics/SVG/1.1/DTD/svg11.dtd">
<svg version="1.1" xmlns="http://www.w3.org/2000/svg" xmlns:xlink="http://www.w3.org/1999/xlink" preserveAspectRatio="xMidYMid meet" viewBox="0 0 130 157" width="130" height="157"><defs><path d="M119.18 -0.03C124.21 -0.03 128.3 4.05 128.3 9.09C128.3 38.67 128.3 118.3 128.3 147.88C128.3 152.92 124.21 157 119.18 157C95.68 157 34.32 157 10.82 157C5.79 157 1.7 152.92 1.7 147.88C1.7 118.3 1.7 38.67 1.7 9.09C1.7 4.05 5.79 -0.03 10.82 -0.03C34.32 -0.03 95.68 -0.03 119.18 -0.03Z" id="b1XD8z7ih"></path><path d="M23.84 19.34L117.17 19.34L117.17 23.49L23.84 23.49L23.84 19.34Z" id="eEpZzbkT2"></path><path d="M94.02 37.58L117.17 37.58L117.17 41.73L94.02 41.73L94.02 37.58Z" id="cvLZnu5rZ"></path><path d="M11.39 28.65L39.75 28.65L39.75 32.8L11.39 32.8L11.39 28.65Z" id="ai7JjqqHT"></path><path d="M11.39 37.58L90.25 37.58L90.25 41.73L11.39 41.73L11.39 37.58Z" id="a5QymPSoUq"></path><path d="M43.15 28.65L117.17 28.65L117.17 32.8L43.15 32.8L43.15 28.65Z" id="e3Gz1ig1Zy"></path><path d="M11.39 47.58L104.72 47.58L104.72 51.73L11.39 51.73L11.39 47.58Z" id="f5pWAHvQmk"></path><path d="M24.56 63.67L117.89 63.67L117.89 67.82L24.56 67.82L24.56 63.67Z" id="b3qcQIbjMW"></path><path d="M94.75 81.91L117.89 81.91L117.89 86.06L94.75 86.06L94.75 81.91Z" id="b4gFbqclW"></path><path d="M12.11 72.98L40.47 72.98L40.47 77.13L12.11 77.13L12.11 72.98Z" id="esdRuxbT7"></path><path d="M12.11 81.91L90.97 81.91L90.97 86.06L12.11 86.06L12.11 81.91Z" id="a1CJ52DV4"></path><path d="M43.87 72.98L117.89 72.98L117.89 77.13L43.87 77.13L43.87 72.98Z" id="aLfnMrbuw"></path><path d="M12.11 91.91L105.44 91.91L105.44 96.06L12.11 96.06L12.11 91.91Z" id="a4BDupEcrX"></path><path d="M23.84 106.44L117.17 106.44L117.17 110.59L23.84 110.59L23.84 106.44Z" id="a5IYB4oEk"></path><path d="M94.02 124.68L117.17 124.68L117.17 128.83L94.02 128.83L94.02 124.68Z" id="a164VPXyV6"></path><path d="M11.39 115.75L39.75 115.75L39.75 119.9L11.39 119.9L11.39 115.75Z" id="ckgls8IBF"></path><path d="M11.39 124.68L90.25 124.68L90.25 128.83L11.39 128.83L11.39 124.68Z" id="dnEqu9pQg"></path><path d="M43.15 115.75L117.17 115.75L117.17 119.9L43.15 119.9L43.15 115.75Z" id="l20tGp0b0m"></path><path d="M11.39 134.68L104.72 134.68L104.72 138.83L11.39 138.83L11.39 134.68Z" id="ahHbCjBvQ"></path></defs><g><g><g><use xlink:href="#b1XD8z7ih" opacity="1" fill="#c6c6c6" fill-opacity="1"></use></g><g><g><use xlink:href="#eEpZzbkT2" opacity="1" fill="#147726" fill-opacity="1"></use></g><g><use xlink:href="#cvLZnu5rZ" opacity="1" fill="#147726" fill-opacity="1"></use></g><g><use xlink:href="#ai7JjqqHT" opacity="1" fill="#147726" fill-opacity="1"></use></g><g><use xlink:href="#a5QymPSoUq" opacity="1" fill="#147726" fill-opacity="1"></use></g><g><use xlink:href="#e3Gz1ig1Zy" opacity="1" fill="#147726" fill-opacity="1"></use></g><g><use xlink:href="#f5pWAHvQmk" opacity="1" fill="#147726" fill-opacity="1"></use></g></g><g><g><use xlink:href="#b3qcQIbjMW" opacity="1" fill="#147726" fill-opacity="1"></use></g><g><use xlink:href="#b4gFbqclW" opacity="1" fill="#147726" fill-opacity="1"></use></g><g><use xlink:href="#esdRuxbT7" opacity="1" fill="#147726" fill-opacity="1"></use></g><g><use xlink:href="#a1CJ52DV4" opacity="1" fill="#147726" fill-opacity="1"></use></g><g><use xlink:href="#aLfnMrbuw" opacity="1" fill="#147726" fill-opacity="1"></use></g><g><use xlink:href="#a4BDupEcrX" opacity="1" fill="#147726" fill-opacity="1"></use></g></g><g><g><use xlink:href="#a5IYB4oEk" opacity="1" fill="#147726" fill-opacity="1"></use></g><g><use xlink:href="#a164VPXyV6" opacity="1" fill="#147726" fill-opacity="1"></use></g><g><use xlink:href="#ckgls8IBF" opacity="1" fill="#147726" fill-opacity="1"></use></g><g><use xlink:href="#dnEqu9pQg" opacity="1" fill="#147726" fill-opacity="1"></use></g><g><use xlink:href="#l20tGp0b0m" opacity="1" fill="#147726" fill-opacity="1"></use></g><g><use xlink:href="#ahHbCjBvQ" opacity="1" fill="#147726" fill-opacity="1"></use></g></g></g></g></svg>