<?xml version="1.0" encoding="UTF-8"?>
<svg enable-background="new" version="1.1" viewBox="0 0 1800 1280" xmlns="http://www.w3.org/2000/svg">
 <g transform="matrix(1.0179 0 0 1.0179 -95.029 -16.885)">
  <rect x="254.63" y="258.4" width="1408.8" height="1015.7" ry="33.397" fill="#ccc"/>
  <rect x="331.22" y="449.51" width="1256.2" height="487.3" ry="26.799" fill="#e6e6e6"/>
  <rect x="358.13" y="477.32" width="66.041" height="43.699" ry="7.8855"/>
  <rect x="429.01" y="477.32" width="66.041" height="43.699" ry="7.8855"/>
  <rect x="499.88" y="477.32" width="66.041" height="43.699" ry="7.8855"/>
  <rect x="570.76" y="477.32" width="66.041" height="43.699" ry="7.8855"/>
  <rect x="641.63" y="477.32" width="66.041" height="43.699" ry="7.8855"/>
  <rect x="712.51" y="477.32" width="66.041" height="43.699" ry="7.8855"/>
  <rect x="783.38" y="477.32" width="66.041" height="43.699" ry="7.8855"/>
  <rect x="854.26" y="477.32" width="66.041" height="43.699" ry="7.8855"/>
  <rect x="925.13" y="477.32" width="66.041" height="43.699" ry="7.8855"/>
  <rect x="996.01" y="477.32" width="66.041" height="43.699" ry="7.8855"/>
  <rect x="1066.9" y="477.32" width="66.041" height="43.699" ry="7.8855"/>
  <rect x="1137.8" y="477.32" width="66.041" height="43.699" ry="7.8855"/>
  <rect x="1208.6" y="477.32" width="66.041" height="43.699" ry="7.8855"/>
  <rect x="1279.5" y="477.32" width="66.041" height="43.699" ry="7.8855"/>
  <rect x="1350.4" y="477.32" width="66.041" height="43.699" ry="7.8855"/>
  <rect x="1421.3" y="477.32" width="66.041" height="43.699" ry="7.8855"/>
  <rect x="1492.1" y="477.32" width="66.041" height="43.699" ry="7.8855"/>
  <rect x="358.13" y="531.2" width="65.384" height="65.549" ry="7.8855"/>
  <rect x="435.11" y="531.2" width="65.384" height="65.549" ry="7.8855"/>
  <rect x="512.09" y="531.2" width="65.384" height="65.549" ry="7.8855"/>
  <rect x="589.06" y="531.2" width="65.384" height="65.549" ry="7.8855"/>
  <rect x="666.04" y="531.2" width="65.384" height="65.549" ry="7.8855"/>
  <rect x="743.01" y="531.2" width="65.384" height="65.549" ry="7.8855"/>
  <rect x="819.99" y="531.2" width="65.384" height="65.549" ry="7.8855"/>
  <rect x="896.97" y="531.2" width="65.384" height="65.549" ry="7.8855"/>
  <rect x="973.94" y="531.2" width="65.384" height="65.549" ry="7.8855"/>
  <rect x="1050.9" y="531.2" width="65.384" height="65.549" ry="7.8855"/>
  <rect x="1127.9" y="531.2" width="65.384" height="65.549" ry="7.8855"/>
  <rect x="1204.9" y="531.2" width="65.384" height="65.549" ry="7.8855"/>
  <rect x="1281.8" y="531.2" width="65.384" height="65.549" ry="7.8855"/>
  <rect x="474.34" y="606.12" width="65.384" height="65.549" ry="7.8855"/>
  <rect x="551.16" y="606.12" width="65.384" height="65.549" ry="7.8855"/>
  <rect x="627.99" y="606.12" width="65.384" height="65.549" ry="7.8855"/>
  <rect x="704.82" y="606.12" width="65.384" height="65.549" ry="7.8855"/>
  <rect x="781.65" y="606.12" width="65.384" height="65.549" ry="7.8855"/>
  <rect x="858.48" y="606.12" width="65.384" height="65.549" ry="7.8855"/>
  <rect x="935.31" y="606.12" width="65.384" height="65.549" ry="7.8855"/>
  <rect x="1012.1" y="606.12" width="65.384" height="65.549" ry="7.8855"/>
  <rect x="1089" y="606.12" width="65.384" height="65.549" ry="7.8855"/>
  <rect x="1165.8" y="606.12" width="65.384" height="65.549" ry="7.8855"/>
  <rect x="1242.6" y="606.12" width="65.384" height="65.549" ry="7.8855"/>
  <rect x="1319.5" y="606.12" width="65.384" height="65.549" ry="7.8855"/>
  <rect x="1396.3" y="606.12" width="85.365" height="65.549" ry="7.8855"/>
  <rect x="492.15" y="681.03" width="65.384" height="65.549" ry="7.8855"/>
  <rect x="569.13" y="681.03" width="65.384" height="65.549" ry="7.8855"/>
  <rect x="646.12" y="681.03" width="65.384" height="65.549" ry="7.8855"/>
  <rect x="723.11" y="681.03" width="65.384" height="65.549" ry="7.8855"/>
  <rect x="800.09" y="681.03" width="65.384" height="65.549" ry="7.8855"/>
  <rect x="877.08" y="681.03" width="65.384" height="65.549" ry="7.8855"/>
  <rect x="954.06" y="681.03" width="65.384" height="65.549" ry="7.8855"/>
  <rect x="1031" y="681.03" width="65.384" height="65.549" ry="7.8855"/>
  <rect x="1108" y="681.03" width="65.384" height="65.549" ry="7.8855"/>
  <rect x="1185" y="681.03" width="65.384" height="65.549" ry="7.8855"/>
  <rect x="1262" y="681.03" width="65.384" height="65.549" ry="7.8855"/>
  <rect x="1339" y="681.03" width="143.45" height="65.549" ry="7.8855"/>
  <rect x="1493.1" y="604.19" width="65.384" height="65.549" ry="7.8855"/>
  <rect x="530.63" y="758.57" width="65.384" height="65.549" ry="7.8855"/>
  <rect x="607.53" y="758.57" width="65.384" height="65.549" ry="7.8855"/>
  <rect x="684.43" y="758.57" width="65.384" height="65.549" ry="7.8855"/>
  <rect x="761.34" y="758.57" width="65.384" height="65.549" ry="7.8855"/>
  <rect x="838.24" y="758.57" width="65.384" height="65.549" ry="7.8855"/>
  <rect x="915.14" y="758.57" width="65.384" height="65.549" ry="7.8855"/>
  <rect x="992.04" y="758.57" width="65.384" height="65.549" ry="7.8855"/>
  <rect x="1068.9" y="758.57" width="65.384" height="65.549" ry="7.8855"/>
  <rect x="1145.8" y="758.57" width="65.384" height="65.549" ry="7.8855"/>
  <rect x="1222.7" y="758.57" width="65.384" height="65.549" ry="7.8855"/>
  <rect x="1299.6" y="758.57" width="106.27" height="65.549" ry="7.8855"/>
  <rect x="1494.3" y="757.6" width="65.384" height="65.549" ry="7.8855"/>
  <rect x="1494" y="680.9" width="65.384" height="65.549" ry="7.8855"/>
  <rect x="1493.4" y="527.49" width="65.384" height="65.549" ry="7.8855"/>
  <rect x="1358.8" y="528.41" width="123" height="65.549" ry="7.8855"/>
  <rect x="1417.4" y="757.17" width="65.384" height="65.549" ry="7.8855"/>
  <rect x="1341.1" y="834.31" width="65.384" height="65.549" ry="7.8855"/>
  <rect x="1418" y="834.31" width="65.384" height="65.549" ry="7.8855"/>
  <rect x="1494.9" y="834.31" width="65.384" height="65.549" ry="7.8855"/>
  <rect x="1223.2" y="834.31" width="106.27" height="65.549" ry="7.8855"/>
  <rect x="1069.4" y="835.24" width="65.384" height="65.549" ry="7.8855"/>
  <rect x="1146.3" y="835.24" width="65.384" height="65.549" ry="7.8855"/>
  <rect x="357.08" y="607.04" width="105.81" height="65.549" ry="7.8855"/>
  <rect x="355.22" y="683.71" width="125.33" height="65.549" ry="7.8855"/>
  <rect x="356.62" y="758.99" width="162.5" height="65.549" ry="7.8855"/>
  <rect x="683.71" y="835.66" width="374.09" height="65.549" ry="7.8855"/>
  <rect x="452.89" y="835.7" width="65.384" height="65.549" ry="7.8855"/>
  <rect x="529.83" y="835.7" width="65.384" height="65.549" ry="7.8855"/>
  <rect x="606.77" y="835.7" width="65.384" height="65.549" ry="7.8855"/>
  <rect x="356.9" y="835.7" width="84.435" height="65.549" ry="7.8855"/>
  <rect x="358.13" y="390.25" width="65.713" height="32.856" ry="5.4213" fill="#9c9a9b"/>
  <rect x="645.41" y="977.11" width="427.49" height="249.99" ry="15.438" fill="#676767" opacity=".99"/>
  <rect x="645.41" y="976.11" width="427.49" height="249.99" ry="15.438" fill="#b3b3b3"/>
  <path d="m113.84 16.59h1728.7c15.565-0.0935 21.853 5.7169 18.143 17.889l-205.6 226.64c-4.609 2.8451-10.399 4.0185-18.071 3.6142h-25.299v39.099c-0.6874 2.8108-1.0946 5.7684-6.2427 6.2427h-69.263v-49.942c-0.1997-4.5326 0.4505-8.3074-2.6575-8.2388h-1152c-2.6459 0.80854-3.3023 1.3579-3.4919 7.386l3.4118 8.9275 0.23233 41.21c-0.23572 2.4845-1.4018 4.5425-5.3331 5.3331 0 0-61.75 0.28414-66.117 0-3.7943-0.24683-5.4571-1.2232-5.4594-5.4594-3e-3 -6.1912 0-41.273 0-41.273h-33.311c-4.1437-0.1084-7.8166-1.6609-10.407-3.6597l-164.32-222.39c-5.733-16.512 0.909-24.414 17.24-25.38z"/>
  <path d="m203.71 59.056h1536.4c12.829-1.5477 10.937 2.6121 4.8491 8.3988l-133.6 159.16-1297.9 0.24-111-164.52c-1.9009-2.9664 0.36918-2.596 1.3143-3.2856z" fill="#162d50"/>
  <path d="m93.861 417.59 15.799-26.95" fill="none" stroke="#000" stroke-width="1px"/>
  <path d="m386.6 267.97 1150.2-2.9571-0.668 73.157c-0.9428 7.4403-4.9062 13.512-13.8 14.539l-1124.6 4.0249c-11.951 1.7157-16.095-6.5545-17.63-13.085v-75.956z" fill="#1a1a1a"/>
 </g>
</svg>
